<svg id="Capa_1" data-name="Capa 1" xmlns="http://www.w3.org/2000/svg" viewBox="0 0 30 30"><defs><style>.cls-1{fill:#484848;}</style></defs><title>icons</title><path class="cls-1" d="M29.6,6a12.8,12.8,0,0,1-3.5.9,5.9,5.9,0,0,0,2.7-3.3A10.9,10.9,0,0,1,25,5a6.4,6.4,0,0,0-4.4-1.9,6,6,0,0,0-6,6,5.9,5.9,0,0,0,.2,1.4A17.1,17.1,0,0,1,2.4,4.2a6.5,6.5,0,0,0-.8,3.1,5.9,5.9,0,0,0,2.7,4.9,6,6,0,0,1-2.7-.7h0a5.9,5.9,0,0,0,4.8,5.8,4.1,4.1,0,0,1-1.6.2H3.7a6,6,0,0,0,5.6,4.2,12.3,12.3,0,0,1-7.5,2.5H.4a17.1,17.1,0,0,0,9.2,2.7c11,0,17-9.2,17-17.1V9.1a12.6,12.6,0,0,0,3-3.1Z"/></svg>