<svg id="Capa_1" data-name="Capa 1" xmlns="http://www.w3.org/2000/svg" viewBox="0 0 30 30"><defs><style>.cls-1{fill:#484848;}</style></defs><title>icons</title><path class="cls-1" d="M20.9,1H9.1A8.1,8.1,0,0,0,1,9.1V20.9A8.1,8.1,0,0,0,9.1,29H20.9A8.1,8.1,0,0,0,29,20.9V9.1A8.1,8.1,0,0,0,20.9,1Zm5.9,19.9a5.8,5.8,0,0,1-5.9,5.9H9.1a5.8,5.8,0,0,1-5.9-5.9V9.1A5.8,5.8,0,0,1,9.1,3.2H20.9a5.8,5.8,0,0,1,5.9,5.9Z"/><path class="cls-1" d="M15,7.4A7.6,7.6,0,1,0,22.6,15,7.6,7.6,0,0,0,15,7.4Zm0,13A5.4,5.4,0,1,1,20.4,15,5.4,5.4,0,0,1,15,20.4Z"/><path class="cls-1" d="M22.7,6.2a1.1,1.1,0,1,0,1.1,1.1A1.1,1.1,0,0,0,22.7,6.2Z"/></svg>