<svg id="Capa_1" data-name="Capa 1" xmlns="http://www.w3.org/2000/svg" viewBox="0 0 30 30"><defs><style>.cls-1{fill:#484848;}</style></defs><title>icons</title><path class="cls-1" d="M26.7,9.2H25.5l-7.9-.3-.7-.3c-1.3,0-2.9-.3-3.9-.4L12,8c-1.7-.1-3.3,1.3-4.8,2.6a7.2,7.2,0,0,1-5.7,1.9H1.2v8.1h.3l3.3.2c.3.2,1.3,1.1,5,1.2a16.5,16.5,0,0,0,5.8-.7s1-.4,1.1-.8a1.9,1.9,0,0,0,1.1-1.2c.1-.2.1-.7-.5-1.1h0A2.2,2.2,0,0,0,19.1,17a1.2,1.2,0,0,0,0-1.4h.1a2.1,2.1,0,0,0,1.3-2.3,1.8,1.8,0,0,0-.7-1h6.9c1.5-.1,2.1-.6,2.1-1.6S28.6,9.2,26.7,9.2ZM12.5,16.5a1,1,0,0,0,.7.7l.5.2h-.2c-.7-.3-.8-.3-1.2-.2a.9.9,0,0,0-.8.5.8.8,0,0,0,0,.7h-.1a2.8,2.8,0,0,1-.1-.9v-.6l-.5.3-.7.2a5.4,5.4,0,0,0,2.3-1.8,3.8,3.8,0,0,0,.9-3.3,1.5,1.5,0,0,0,1.6-.1v.3c-.7,0-1.4-.1-1.5,1s.2,1.3.8,1.5h-.4a1.3,1.3,0,0,0-1.2.6A1.3,1.3,0,0,0,12.5,16.5ZM14.1,13h.8a10.4,10.4,0,0,0,.6,1.6C14.3,14.8,13.9,14.3,14.1,13Zm-3,8.3H9.8c-3.7-.2-4.4-1-4.4-1h0l-.2-.2H4.9l-3-.2V13.2H3.1a4.2,4.2,0,0,0,2.5-.3,19.6,19.6,0,0,0,2.1-1.6C9,10,10.5,8.6,12,8.7l.9.2,4.5.5a.4.4,0,0,1,.4.2,1.4,1.4,0,0,1,.2.6c-.1,1.1,0,2.2,0,3.1a4.6,4.6,0,0,1,.1,1.6,1.7,1.7,0,0,1-1.6-.6h-.1a.1.1,0,0,0-.1-.1h0l-.3-.2a2.3,2.3,0,0,1-.3-1.9s.2-.2.2-.3a1.3,1.3,0,0,0-.9-.5l-.2.2c-.4.4-1,.5-1.3.1v-.2c-.3-.1-.8.2-1,.4a1,1,0,0,0,.1.3,3.4,3.4,0,0,1-.7,3.2c-1,1.4-2.1,2-3.5,1.8s-.2-.1-.3,0a1.2,1.2,0,0,0-.3,1h.4a4.3,4.3,0,0,0,2.5-.1,1.4,1.4,0,0,0,.2.7,3.9,3.9,0,0,0,3,2.4Zm6-2.2c-1.3,1.4-2.9,1.3-4.7-.4-.2-.3-.3-.5-.2-.7s.1-.1.2-.1a1,1,0,0,1,.9.2,25.2,25.2,0,0,0,3.7.8C17.2,19,17.1,19.1,17.1,19.1Zm1.4-2.5a1.4,1.4,0,0,1-1.2.9,14.4,14.4,0,0,1-3.8-.9l-.3-.3c-.1-.1,0-.2,0-.3a.7.7,0,0,1,.8-.3l2.4.4a2.3,2.3,0,0,0,2,0h.2A1.1,1.1,0,0,1,18.5,16.6Zm1.3-3.2a1.2,1.2,0,0,1-.8,1.4h-.1a9.7,9.7,0,0,0-.1-1.6v-.3h.5C19.6,12.9,19.7,13.1,19.8,13.4Zm6.9-2h-8a10.5,10.5,0,0,0,0-1.8l7.8.2C28.9,9.9,28.5,11.4,26.7,11.4Z"/></svg>