<svg id="Capa_1" data-name="Capa 1" xmlns="http://www.w3.org/2000/svg" viewBox="0 0 30 30"><defs><style>.cls-1{fill:#484848;}</style></defs><title>icons</title><circle class="cls-1" cx="15.3" cy="3.6" r="2.6"/><path class="cls-1" d="M17.6,8H12.9C11.2,8,11,8.8,11,9.7l.8,7h1.7l.9,7h1.8l.8-7h1.8l.7-7C19.5,8.8,19.4,8,17.6,8Z"/><path class="cls-1" d="M18.8,18.7v1.7c4.1.5,7,1.8,7,3.3s-4.7,3.5-10.5,3.5S4.8,25.7,4.8,23.7s2.9-2.8,7-3.3V18.7C7,19.2,3,20.8,3,23.7S9.2,29,15.3,29s12.2-1.6,12.2-5.3S23.5,19.2,18.8,18.7Z"/></svg>