<svg id="Capa_1" data-name="Capa 1" xmlns="http://www.w3.org/2000/svg" viewBox="0 0 30 30"><defs><style>.cls-1{fill:#484848;}</style></defs><title>icons</title><path class="cls-1" d="M26.7,9.1H25.5l-7.9-.2a1.1,1.1,0,0,0-.7-.3L13,8H12c-1.8-.2-3.4,1.3-4.9,2.6a5.9,5.9,0,0,1-5.3,1.9l-.6-.2H1.1c0,.1-.1.1-.1.2v8.1a.2.2,0,0,0,.2.2h.3a12.2,12.2,0,0,0,3.3.2c.3.4,1.5,1.1,4.9,1.2h1a17.3,17.3,0,0,0,5-.7c.1-.1.9-.4,1.1-.8A2.2,2.2,0,0,0,18,19.3a1.1,1.1,0,0,0-.3-1A2.9,2.9,0,0,0,19.3,17a1.7,1.7,0,0,0,0-1.4,2.2,2.2,0,0,0,1.3-2.4,1.2,1.2,0,0,0-.4-.8h6.5c1.6-.1,2.3-.7,2.3-1.8S28.7,9.1,26.7,9.1ZM19,14.6V13h.4c.2,0,.3.3.3.4h0A1.1,1.1,0,0,1,19,14.6Zm9-4c0,.3-.5.7-1.3.7H18.9V9.8l7.6.2,1.2.2A.5.5,0,0,1,28,10.6Zm-20.2.6c1.3-1.1,2.8-2.4,4.1-2.3h1l4.5.5.3.2a.4.4,0,0,1,.1.5,15.5,15.5,0,0,0,.1,3.1c0,.4.1,1.1.1,1.4a1.7,1.7,0,0,1-1.4-.4c0-.1,0-.1-.1-.1h-.2l-.2-.2a1.9,1.9,0,0,1-.2-1.7.8.8,0,0,0,.1-.4c-.1-.3-.7-.7-1-.6l-.3.2a1.1,1.1,0,0,1-.7.3h-.3l-.3-.4c-.3,0-1,.2-1.1.5s-.1.2.1.4a3.4,3.4,0,0,1-.7,3.1q-1.5,2.1-3.3,1.8H7.9a2.5,2.5,0,0,0-.4.7c0,.2,0,.5.1.6l.4.2a5.3,5.3,0,0,0,2.5-.1,1.3,1.3,0,0,0,.1.6A3.9,3.9,0,0,0,13.1,21H9.8c-3.3-.1-4.2-.8-4.3-.9V20H2.1V13.3H3.2A5.8,5.8,0,0,0,5.6,13a14.6,14.6,0,0,0,2.2-1.7Zm8.6,3.1Zm-2.9-1.7h0Zm.8.5h.5l.4,1.4a.8.8,0,0,1-.8-.1C14.2,14.1,14.2,13.7,14.3,13.1Zm-.6,1.8H13l.3-.8A1.6,1.6,0,0,0,13.7,14.9Zm-2.3,2.7h0V17c0-.1-.1-.1-.1-.2l.9-.8v.6l.3.4h-.3A1.5,1.5,0,0,0,11.4,17.6Zm1.9-1.3v-.2a.6.6,0,0,1,.5-.2H14a9.9,9.9,0,0,0,2.4.3,2.1,2.1,0,0,0,2,.1h0v.3a1.4,1.4,0,0,1-1.1.7,14.4,14.4,0,0,1-3.8-.9ZM12.4,18h.2l.7.2a11.8,11.8,0,0,0,3.6.8c.1,0,.1,0,.1.1a2.5,2.5,0,0,1-1.7.8,3.8,3.8,0,0,1-2.8-1.3c-.2-.3-.2-.4-.2-.5A.1.1,0,0,1,12.4,18Z"/></svg>