<?xml version="1.0" encoding="utf-8"?>
<!-- Generator: Adobe Illustrator 22.1.0, SVG Export Plug-In . SVG Version: 6.00 Build 0)  -->
<svg version="1.1" id="Capa_1" xmlns="http://www.w3.org/2000/svg" xmlns:xlink="http://www.w3.org/1999/xlink" x="0px" y="0px"
	 viewBox="0 0 30 30" style="enable-background:new 0 0 30 30;" xml:space="preserve">
<style type="text/css">
	.st0{fill:#FF0002;}
</style>
<g>
	<g>
		<circle class="st0" cx="15" cy="3.3" r="2.4"/>
		<path class="st0" d="M15.8,6.8c-0.6-0.1-1.2-0.1-1.8,0c-3.9,0.5-5.2,5-4.8,8.5c0.2,1.5,2.5,1.5,2.4,0c-0.1-1.3-0.1-3.2,0.6-4.6
			c0,1.7,0,3.3,0,4.9c0,0.1,0,0.1,0,0.2c0,0,0,0.1,0,0.1c0,3.9,0,7.8-0.2,11.8c-0.1,1.8,2.6,1.7,2.7,0c0.1-3.1,0.2-6.2,0.2-9.2
			c0.1,0,0.3,0,0.4,0c0,3.1,0,6.2,0.2,9.2c0.1,1.7,2.8,1.8,2.7,0c-0.2-3.9-0.2-7.8-0.2-11.8c0-0.1,0-0.2,0-0.3c0-1.7-0.1-3.4,0-5.1
			c0.8,1.4,0.9,3.4,0.7,4.8c-0.2,1.5,2.2,1.5,2.4,0C21.3,11.7,19.9,7.1,15.8,6.8z"/>
	</g>
</g>
</svg>
