<?xml version="1.0" encoding="utf-8"?>
<!-- Generator: Adobe Illustrator 23.0.1, SVG Export Plug-In . SVG Version: 6.00 Build 0)  -->
<svg version="1.0" id="Capa_1" xmlns="http://www.w3.org/2000/svg" xmlns:xlink="http://www.w3.org/1999/xlink" x="0px" y="0px"
	 viewBox="0 0 105 133" style="enable-background:new 0 0 105 133;" xml:space="preserve">
<style type="text/css">
	.st0{fill:#FFFFFF;}
</style>
<g>
	<g>
		<rect class="st0" width="105" height="133"/>
	</g>
	<g>
		<g>
			<path d="M9.8,115.2c0.1-0.2,0.1-0.2,0.2-0.3c0,0,0.1,0,0.2,0.1l0.1,0c0.2,0,0.3-0.3,0.3-0.6l0.3-0.2V114c0,0,0-0.1,0-0.1
				c0,0,0.1-0.1,0.2-0.4l0,0l0-0.1c0-0.7,0.1-0.9,0.1-0.9l0-0.1l0-0.1c-0.1-0.2-0.2-0.8-0.7-0.8c-0.1,0-0.2,0-0.6,0.1l-0.1,0l0,0.1
				c-0.1,0.2-0.2,0.4-0.2,0.4H9.5v0.2c0,0.4-0.1,0.6-0.2,0.7l-0.1,0.1v0.1c0,0.4-0.3,0.7-1,1.1c0,0-0.1,0-0.1,0
				c0-0.4-0.4-0.5-1.1-0.5l-0.1,0c-0.1,0.1-0.2,0.2-0.4,0.3l0,0c-0.2-0.3-0.3-0.5-0.5-0.6c-0.1-0.1-0.3-0.2-0.3-0.6v0l0,0
				c-0.3-0.5-0.4-1.1-0.4-1.8l0-0.3l0,0c-0.1-0.5-0.1-0.6-0.1-0.6c0-0.3,0.1-0.5,0.1-0.6l0.1,0.1v-0.3c0-0.3,0.1-0.5,0.2-0.7l0-0.1
				v-0.1c0-0.2,0.1-0.4,0.4-0.6l0.1-0.1v-0.1c0-0.1,0-0.2,0.4-0.3l0.1,0l0-0.1c0.1-0.2,0.2-0.2,0.2-0.3c0,0,0.1,0.1,0.2,0.1l0.1,0.1
				h0.2l0.1,0c0.2-0.1,0.3-0.2,0.3-0.4c0.5,0.1,0.6,0.1,0.7,0.2c0,0.2,0.1,0.5,0.3,0.5c0.2,0.1,0.3,0.2,0.3,0.4v0.1l0,0
				c0.3,0.4,0.5,0.8,0.5,1.1c0,0.2,0,0.3,0,0.3v0.1l0,0.1c0.3,0.7,0.6,1,0.9,1c0.2,0,0.3-0.1,0.4-0.1c0.4-0.1,0.5-0.8,0.5-1.4l0-0.1
				c-0.3-0.7-0.3-0.9-0.3-0.9v0c0,0,0-0.1,0.1-0.1H11l0-0.2c0-0.4,0.1-0.8,0.2-1.1l0-0.1l0,0c-0.3-0.7-0.6-1-1-1h-0.1
				c-0.1,0-0.2,0.1-0.4,0.4c-0.1,0.3-0.2,0.4-0.2,0.4c0,0-0.1,0-0.2-0.1l0.1-0.1l0-0.1v-0.1c0-0.1-0.1-0.2-0.3-0.3
				c0,0-0.1,0-0.4,0.1H8.8c0,0,0,0,0,0v-0.1l-0.2,0c-0.5-0.1-0.7-0.2-0.8-0.3l-0.1-0.1l-0.1,0c-0.1,0-0.2,0.1-0.3,0.2l-0.2,0l0,0
				c-0.5,0.2-0.8,0.4-1,0.4l-0.1,0l0,0c-0.4,0.4-0.5,0.6-0.6,0.6H5.2l-0.1,0.1c-0.2,0.3-0.3,0.4-0.3,0.4H4.7v0.2
				c0,0.3-0.1,0.5-0.3,0.7l-0.1,0l0,0.1c0,0.5-0.1,1-0.3,1.6l0,0.3c0,0.2-0.1,0.5-0.2,0.7l0,0.1c0,0.1,0,0.2,0.1,0.4l0,0.2l0.2,0.5
				c0,0.1,0,0.3,0,0.5l0,0l0,0c0.1,0.4,0.2,0.5,0.2,0.5c0,0.4,0.3,0.9,0.9,1.5c0,0.1,0.2,0.3,0.6,0.7l0,0c0.8,0.3,0.9,0.4,1,0.4
				l0.1,0.1l0.4-0.1h0.1c0,0,0.1,0,0.4,0.2l0.1,0l0.1,0c0.5-0.1,0.8-0.2,0.9-0.3L9.8,115.2L9.8,115.2z"/>
			<path d="M19.3,115.2L19.3,115.2c0.6,0,1-0.2,1.2-0.6l0-0.1c0-0.3-0.1-0.6-0.7-0.8v-0.1l-0.2,0l-0.2,0v0.1c-0.2,0-0.3,0-0.4,0
				c-0.2-0.7-0.2-0.9-0.3-1c-0.1-0.7-0.2-1.1-0.3-1.3v-0.1c0-0.2-0.1-0.6-0.4-1.1c0-0.6-0.1-1-0.3-1.3c0-0.5-0.1-0.8-0.2-0.9
				c-0.2-0.7-0.3-1-0.4-1.2l0-0.1c-0.1-0.3-0.1-0.5-0.2-0.6l-0.3-0.5h0c0-0.1-0.1-0.2-0.2-0.3l-0.1-0.1l-0.2,0
				c-0.3,0.1-0.5,0.1-0.6,0.3l-0.1,0.1v0.4c0,0.1,0,0.1,0,0.1l-0.1,0v0.1c0,0.3-0.1,0.7-0.3,1.1l0,0l0,0.1c0,0.1,0,0.2,0,0.2
				c0,0.1,0,0.1,0,0.2H15l0,0.2c-0.1,0.4-0.2,1.1-0.4,2c-0.1,0.3-0.2,0.9-0.4,1.8c0,0,0,0.1-0.1,0.5c0,0,0,0.1-0.2,0.4l0,0l0,0.2
				c0,0,0,0,0,0h0l0,0.1c-0.1,0.3-0.2,0.5-0.3,0.7c-0.6,0-1.3,0.1-1.3,0.7l0,0.1c0.3,0.5,0.3,0.6,0.4,0.7l0.1,0.1l0.1,0
				c0.4,0,0.9,0,1.2,0h0.2c0,0,0.1,0,0.1,0.1l0.1,0l0.1,0c0.4-0.1,0.5-0.1,0.5-0.1l0.3,0l0,0c0.3-0.1,0.6-0.2,0.6-0.5
				c0-0.2-0.1-0.8-0.5-0.8l0,0c-0.5-0.1-0.5-0.3-0.5-0.3c0,0,0-0.1,0-0.1l0,0v-0.2c0-0.3,0.1-0.6,0.3-0.9c0.4,0,0.8,0,1.3,0l0.3,0v0
				l0.2,0c0.6,0,0.7,0.2,0.7,0.4l0,0.4c0,0.2,0,0.3,0,0.3l-0.4,0.1c-0.3,0-0.5,0.2-0.5,0.5v0.3c0,0.1,0,0.3,0.3,0.5l0,0
				c0.1,0.1,0.3,0.1,0.4,0.1c0.3,0,0.8,0,1.5,0C19,115.1,19.1,115.1,19.3,115.2z M17.1,111.3c-0.1,0-0.3,0.1-0.7,0.1
				c-0.2,0-0.3-0.1-0.3-0.1l0,0h0c-0.4,0-0.5-0.2-0.6-0.3c0.1-0.3,0.2-0.5,0.2-0.8c0.1-0.2,0.2-0.5,0.3-1.4c0.1-0.7,0.2-0.9,0.3-1
				c0,0,0,0,0.1,0c0.1,0.4,0.2,0.8,0.4,1c0.1,0.6,0.2,0.9,0.2,1c0,0.6,0.1,1,0.2,1.3L17.1,111.3z M17.8,113.7
				C17.8,113.7,17.8,113.7,17.8,113.7C17.8,113.7,17.8,113.7,17.8,113.7L17.8,113.7z"/>
			<path d="M24.8,115.5c0.1,0,0.3-0.1,0.3-0.3c0.3-0.3,0.3-0.5,0.3-0.6h0l0-0.1v-0.3h-0.1c-0.1-0.2-0.4-0.3-0.6-0.3
				c-0.1,0-0.5,0-0.7-0.8l0.1-0.5l0-0.1c0,0,0,0,0-0.1v-0.1c0.2-0.2,0.3-0.5,0.3-0.8c0.2-0.4,0.4-0.6,0.7-0.6c0.1,0,0.3,0,0.8-0.3
				c0.1,0,0.2,0.1,0.5,0.5c0.1,0.6,0.1,0.9,0.2,1.1c0.1,0.4,0.1,0.6,0.2,0.7c0,0.4,0.1,0.7,0.2,0.9c0,0.6,0.3,1,0.8,1.3l0.1,0l0.1,0
				c0.5-0.1,0.7-0.1,0.8-0.1l0.4,0.2l0.1,0c0.3,0,0.5,0,0.6,0h0.1l0.1,0c0.1,0,0.2-0.1,0.2-0.3v-0.2l0,0c-0.1-0.5-0.3-0.8-0.6-0.9
				l-0.1,0c-0.4,0-0.7-0.1-1-0.3l0,0h-0.1c0,0-0.1-0.1-0.2-1l0.1-0.3l0-0.1c0,0,0-0.1,0-0.1v-0.1l-0.1-0.1c-0.2-0.2-0.3-0.3-0.3-0.4
				l0,0l0,0c-0.1-0.2-0.3-0.5-0.5-0.9c0,0,0.1-0.2,0.2-0.4l0-0.1c0.1-0.2,0.3-0.4,0.7-0.6h0.4v-0.3l-0.1-0.1
				c-0.2-0.2-0.2-0.3-0.2-0.3v-0.1l0.1-0.2c0.1-0.1,0.2-0.3,0.3-0.5l0-0.1c0-0.2-0.1-0.5-0.3-0.8l-0.1-0.1h0
				c-0.3-0.4-0.7-0.9-1.4-1.5l-0.1,0h-0.1c0,0-0.1,0-0.1,0c-0.1,0-0.2-0.1-0.5-0.3l-0.3-0.2v0.2c0,0-0.1,0-0.2,0c-0.2,0-0.3,0-0.4,0
				l-0.3-0.3v0.3H25l-0.1-0.1l-0.1,0c-0.1,0-0.2,0.1-0.3,0.2c-0.1,0-0.2,0-0.3,0l0,0l0,0c-0.7,0.1-1.2,0.2-1.5,0.2
				c-0.4-0.1-0.6-0.2-0.7-0.2c-0.1,0-0.4,0.1-0.4,0.6c0,0.3,0.1,0.5,0.4,0.6l0.1,0c0.1,0,0.1,0,0.2,0c0.2,0.1,0.3,0.1,0.5,0.1
				c0.1,0,0.2,0,0.3,0.3c0,0,0,0.1,0,0.2c0,0.3,0,0.5,0,0.6l-0.1,0.3h0.1v0.2c0,0.1,0,0.3,0,0.4c-0.1,0.7-0.2,1.2-0.2,1.4l0,0.4
				l-0.4,0.5l0.3,0.6c-0.3,0.5-0.3,0.6-0.3,0.7v0.1l0.1,0.1c0.3,0.2,0.4,0.5,0.4,0.8l0,0.1c0,0.5-0.3,0.6-0.5,0.6h-0.6
				c-0.2,0-0.3,0.2-0.4,0.9c0,0.1,0,0.2,0.3,0.5l0.1,0.1h0.1c0,0,0.1,0,1-0.2l0.5,0.2l0.1,0c0.1,0,0.2,0,0.4-0.1l0.3,0l0,0
				c0.1,0,0.2-0.1,0.2-0.1l0.3,0.4H24.8z M23.9,108v-0.3c0-0.2,0-0.3,0.1-0.4l0-0.1l-0.1-0.3l0-0.1c0,0,0.1-0.2,0.9-0.4
				c0,0,0.1,0.1,0.3,0.2l0.1,0l0.1,0c0.3,0,0.5-0.1,0.6-0.1l0.1,0.1c0.4,0.1,0.5,0.2,0.5,0.2c0,0,0,0,0,0l0.1,0.1l0,0
				c0.1,0.1,0.2,0.1,0.3,0.1c0,0,0.1,0,0.2,0.4c-0.1,0.3-0.2,0.4-0.2,0.6v0.4l0,0.1c0.1,0.1,0.1,0.1,0.1,0.2c0,0.2-0.1,0.3-0.1,0.4
				l-0.2,0.1c0,0,0,0,0,0h-0.2v0.1c-0.3,0.2-0.4,0.2-0.5,0.2c0,0-0.1,0-0.3-0.1l0,0c-0.1-0.1-0.2-0.1-0.2-0.2l-0.1,0l-0.7,0.1
				l-0.2,0c0,0-0.1,0-0.6,0.2l-0.1,0c0,0-0.1-0.1-0.2-0.4C23.9,108.5,23.9,108.2,23.9,108z"/>
			<path d="M35.4,113.1l0,0.2h0.2c0,0,0,0,0.1,0l0.1,0.1l0.1-0.1c0.1-0.1,0.2-0.2,0.2-0.3l0-0.3l-0.1,0l0-0.1h-0.1
				c0.1-0.1,0.2-0.2,0.2-0.3v-0.1c0-0.1-0.1-0.3-0.3-0.3h-0.1l0,0c-0.1,0.1-0.2,0.2-0.2,0.3v0.3h0.2c0,0,0,0,0.1,0l0,0
				C35.6,112.9,35.4,113,35.4,113.1z"/>
			<path d="M38.4,115v-0.2l-0.1-0.1c-0.7-0.7-1.3-1-1.8-1h-0.2c-0.1-0.1-0.3-0.1-0.5-0.2l0,0l-0.3,0h-0.1c0,0-0.1-0.1-0.1-0.8
				l0.1-0.1l0-0.1c-0.1-0.1-0.1-0.3-0.1-0.4v-0.3c0-0.2,0-0.4,0-0.5c0-0.1,0-0.3,0-0.5v-1c0-0.1,0-0.2,0.1-0.3l0-0.1l0-0.1
				c0-0.1,0-0.2,0-0.4l-0.2-1c0-0.1,0-0.3,0-0.5l0,0l0,0c0-0.1-0.1-0.2-0.1-0.2c0.3-0.6,0.5-0.7,0.6-0.7c0.4,0,0.5,0.2,0.5,0.2l0,0
				c0.4,0.3,0.6,0.8,0.6,1.3l-0.1,0.9h0.1c0,0,0,0.1,0,0.1c0,0.2-0.1,0.3-0.1,0.3l0,0.1l0,0.1c0.1,0.7,0.5,0.8,0.7,0.8l0.1,0
				c0.5-0.2,0.8-0.5,0.8-0.8l-0.1-0.8c0-0.1,0.1-0.2,0.1-0.3l-0.1-0.5c0-0.1,0-0.2,0.1-0.4l0-0.1l0-0.1c-0.1-0.4-0.2-0.6-0.2-0.6
				c0,0,0-0.1,0.2-0.3l0,0v-0.1c0-0.1-0.1-0.3-0.3-0.4c-0.2-0.5-0.7-0.7-1.4-0.8c0,0-0.1-0.1-0.2-0.1h-0.2l0,0
				c-0.1,0-0.1,0.1-0.2,0.1c0,0-0.1,0-0.1,0c-0.1,0-0.3,0-0.5,0.1l-0.3-0.1l-0.1,0c-0.3,0.1-0.4,0.1-0.4,0.1h-0.2c0,0-0.1,0-0.3-0.1
				l-0.1,0c-0.1,0-0.4,0-0.8,0c0,0-0.2,0-0.4,0l0,0l0,0c-0.2,0.1-0.2,0.1-0.2,0.1c0,0-0.1,0-0.3-0.1l-0.1,0l-0.1,0
				c-0.2,0.1-0.5,0.1-0.5,0.3c-0.3,0.1-0.4,0.7-0.5,1.7l0,0.1l0,0c0,0,0,0.1,0,0.1c0,0,0,0.2-0.1,0.5l-0.1,0.2H31c0,0,0,0.1,0,0.2
				c0,0.1,0,0.3-0.1,0.7l0,0l0,0c0.1,0.2,0.1,0.3,0.1,0.4c0,0,0,0.1-0.1,0.2l0,0v0.1c0,0.2,0.1,0.5,0.6,0.5h0.2l0.2-0.1l0-0.1
				c0.2-0.6,0.3-1,0.3-1.2c0-0.4-0.1-0.8-0.2-1.3c0.1-0.8,0.5-0.9,0.8-0.9H33l0,0c0.4-0.2,0.5-0.2,0.5-0.2c0,0,0.1,0,0.1,0l0,0h0.1
				c0,0,0.2,0.1,0.3,0.9c-0.1,0.4-0.2,0.5-0.2,0.6v0.2c0,0.1,0,0.3,0.1,0.6c0,0,0,0.1-0.1,0.7v0.6c0,0.2,0,0.4,0,0.6l-0.1,0.3l0,0.1
				c0,0.4,0,0.7,0,1v0.1l-0.2,0.3h0.2c0,0.1,0,0.3-0.1,0.5l0,0.1l0,0.1c0.1,0.2,0.1,0.3,0.1,0.3c-0.1,0.3-0.2,0.4-0.2,0.4
				c-0.2,0-0.4,0-0.6,0h0c-0.2,0-0.5,0-0.9,0.1c-0.4,0-0.7,0.2-0.7,0.6v0.3l0,0c0.1,0.2,0.3,0.4,0.4,0.4c0.1,0,0.2,0,0.3-0.1
				c0.3,0.2,0.4,0.2,0.4,0.2h0c0.2,0,0.4-0.1,0.6-0.2c0.2,0.1,0.4,0.1,0.5,0.1h0.3c0.2,0,0.4,0,0.5,0c0.3,0,0.6,0.1,0.8,0.1l0.1,0
				c0.2,0,0.3-0.1,0.4-0.2c0,0.2,0.1,0.3,0.3,0.3h0c0.1,0,0.2-0.1,0.3-0.2c0,0,0.1,0,0.1,0l0.1,0l0.1,0c0.1,0,0.2,0,0.2,0l0,0
				c0.3,0.2,0.5,0.2,0.6,0.2l0.1,0C37.9,115.4,38.2,115.3,38.4,115L38.4,115z"/>
			<path d="M45.3,115c0.2,0,0.5-0.2,0.9-0.6c0.3-0.3,0.5-0.5,0.5-0.7c0.3-0.2,0.4-0.6,0.4-1.1l0.3-0.5l-0.1-0.4
				c0.1-0.4,0.1-0.5,0.1-0.6c0-0.1,0-0.2,0-0.4l0-0.3c-0.1-1.7-0.1-2.1-0.1-2.2l0-0.1c0-0.1-0.1-0.1-0.1-0.2c0-0.2-0.1-0.3-0.1-0.4
				h0l-0.2-0.3c0,0-0.1-0.1-0.2-0.2c-0.1-0.2-0.2-0.3-0.2-0.3l0-0.1c-0.2-0.4-0.4-0.7-0.6-0.7c-0.4-0.4-0.6-0.5-0.8-0.5
				c-0.1-0.2-0.5-0.3-1.2-0.4l0,0l-0.5,0.2l-0.2,0c-0.8,0.1-1.2,0.2-1.3,0.5c-0.2,0-0.3,0.1-0.4,0.2l-0.1,0.1l0,0.1c0,0,0,0.1,0,0.1
				c-0.4,0.6-0.6,0.7-0.6,0.8c-0.1,0.1-0.2,0.2-0.3,0.3l0,0.1l0,0.2c-0.2,0.5-0.3,0.7-0.4,0.8l0,0v0.7c0,0.1,0,0.2-0.1,0.2l0,0.1
				l0,0.1c0,0.2,0,0.3,0,0.4c-0.1,0.3-0.1,0.3-0.1,0.4v0.2l0.2,0.3c0,0.4,0,0.7,0,1v0.2c0,0.1,0,0.2,0.1,0.8c0,0.1,0.1,0.4,0.6,1.2
				c0,0.2,0.1,0.5,0.5,0.7l0.6,0.6l0.1,0c0.3,0,0.5,0.1,0.5,0.1l0,0h0.3c0.1,0.1,0.2,0.1,0.4,0.1h0.5c0.1,0.1,0.2,0.1,0.3,0.1v0.2
				l0.2-0.2h0.2v-0.1c0.2-0.2,0.4-0.3,0.6-0.4H45.3z M45,113.7c-0.2,0.3-0.6,0.4-1,0.6l-0.9-0.2c-0.3-0.3-0.5-0.4-0.7-0.5
				c-0.3-0.3-0.5-0.5-0.6-0.5c-0.1-0.3-0.3-0.5-0.3-0.6c0-0.4-0.1-0.6-0.3-0.7c-0.1-0.4-0.2-0.8-0.3-1c0.1-0.3,0.1-0.4,0.1-0.4v-0.1
				l-0.1-0.2l0-0.4l0-0.3c0,0,0-0.1,0.1-0.2l0,0l0-0.3c0.2-1.1,0.5-1.1,0.5-1.1h0.1l0.1-0.1c0.4-0.8,0.7-0.9,0.7-0.9l0.1,0l0-0.1
				c0.2-0.3,0.5-0.4,0.7-0.4h0.5c0,0,0,0,0,0v0.1l0.1,0c0.5,0.1,0.8,0.2,1,0.3l0.1,0c0.2,0,0.5,0.4,0.6,0.7l0,0.1h0
				C46,108,46,108,46,108l0,0.2l-0.1,0.6H46c0,0,0,0.1,0,0.1H46c-0.1,0-0.2,0.1-0.3,0.2l0,0.3h0.2c0.1,0,0.2-0.1,0.2-0.2
				c0.1,0.2,0.1,0.6,0.2,1c-0.2,0.5-0.2,0.7-0.2,0.8c0,0.1,0,0.3,0,0.5c0,0,0,0,0,0l0,0.1c0,0,0,0.1-0.2,0.3l0,0.1v0.4
				c0,0,0,0.1-0.1,0.3l0,0.1c0,0,0,0,0,0l-0.1,0.1l0,0.1C45.5,113.2,45.3,113.5,45,113.7L45,113.7z M46,109.3
				C46,109.3,46,109.3,46,109.3L46,109.3L46,109.3z M45.9,109.2L45.9,109.2L45.9,109.2C45.9,109.2,45.9,109.2,45.9,109.2z"/>
			<path d="M55.5,110.6L55.5,110.6c-0.1,0-0.2,0-0.4,0.1c-0.2,0-0.5,0-0.9-0.1l0,0l0,0c-0.5,0.2-0.6,0.5-0.6,0.7
				c0.1,0.4,0.3,0.5,0.4,0.5c0.3,0.1,0.4,0.3,0.4,0.6c0,0.2-0.2,0.6-0.9,1.2c-0.1,0-0.2-0.1-0.4-0.2l-0.1,0l-0.1,0
				c-0.5,0.2-0.6,0.2-0.6,0.2c-0.3,0-0.5-0.1-0.7-0.2l-0.1,0l-0.3,0.1h0c-0.1-0.3-0.3-0.5-0.5-0.7c0-0.3-0.1-0.5-0.2-0.7l0-0.1
				l0-0.2l-0.1-0.1c-0.3-0.3-0.3-0.4-0.3-0.4c0-0.1,0-0.2,0.1-0.3l0.1-0.3h-0.2c0,0,0-0.1-0.1-0.2c0.1-0.4,0.1-0.6,0.1-0.7l0.1-0.3
				h-0.1c0-0.2,0-0.3,0-0.3h0.1v-0.2c0-0.8,0.2-1.3,0.5-1.4l0.1,0l0-0.1c0.1-0.2,0.2-0.3,0.2-0.3l0.2,0l0.1,0
				c0.2-0.1,0.3-0.2,0.4-0.3l0,0l0-0.1c0-0.2,0.1-0.2,0.1-0.2c0,0,0.2,0,0.4,0c0,0,0.2,0,0.6-0.1c0,0,0.1,0,0.6,0.3l0.1,0
				c0,0,0.3,0.1,1,1.7c0,0.2,0.1,0.5,0.7,0.5l0.4-0.2l0-0.5c0,0,0-0.1,0.1-0.3l0-0.1c0-0.3-0.1-0.4-0.1-0.5l0,0
				c0-0.1-0.1-0.2-0.1-0.3c0-0.1,0-0.1,0.1-0.2l0.2-0.3h-0.1c0-0.1,0.1-0.2,0.1-0.4l0-0.1c0-0.2-0.1-0.5-0.6-0.7l-0.1,0l-0.1,0
				c-0.3,0.2-0.4,0.2-0.4,0.2h-0.3c-0.5-0.3-0.9-0.5-1.1-0.5l0,0l-0.2,0c-0.1,0-0.3,0-0.4-0.1l-0.1,0l-0.1,0
				c-0.2,0.1-0.3,0.1-0.4,0.1h-0.3l-0.1,0c-0.9,0.4-1.1,0.6-1.2,0.7c-0.5,0.5-0.7,0.7-0.7,0.8c-0.3,0.6-0.4,0.8-0.4,0.9
				c-0.3,0.3-0.4,0.9-0.5,2.1l0,0.1l0,0c0,0,0,0,0,0c0,0.1,0,0.2-0.1,0.6l0,0.1c0,0.2,0,0.3,0.1,0.5c0,0,0,0.1,0,0.2l0,0.2
				c0.1,0.8,0.1,1.1,0.3,1.2c0,0.1,0.2,0.3,0.4,0.9l0.1,0.1c0.1,0.1,0.1,0.2,0.1,0.2c0,0.2,0.2,0.4,0.6,0.6c0.1,0.3,0.5,0.5,1.2,0.6
				l0.1,0l0.3-0.1c0.1,0,0.1,0,0.1,0l0.1,0l0.3,0h0.1c0,0,0,0,0,0c0.2,0.3,0.4,0.3,0.6,0.3h0.5l0.3-0.2l-0.1-0.3h0
				c0.5,0,0.8,0.1,0.9,0.3l0.1,0.1h0.1l0.1,0c0.6-0.2,0.8-0.7,0.8-1l0-0.1c-0.1-0.2-0.1-0.3-0.1-0.3l0.1-1c0-0.4,0.1-0.7,0.2-0.7
				c0.5,0,0.7-0.2,0.8-0.7c0-0.2-0.1-0.3-0.1-0.4C56.7,110.9,56.4,110.8,55.5,110.6z"/>
			<path d="M61.1,115.5c0.1,0,0.3-0.1,0.3-0.3c0.3-0.3,0.3-0.5,0.3-0.6h0l0-0.1v-0.3h-0.1c-0.1-0.2-0.4-0.3-0.6-0.3
				c-0.1,0-0.5,0-0.7-0.8l0.1-0.5l0-0.1c0,0,0,0,0-0.1v-0.1c0.2-0.2,0.3-0.5,0.3-0.8c0.2-0.4,0.4-0.6,0.7-0.6c0.1,0,0.3,0,0.8-0.3
				c0.1,0,0.2,0.1,0.5,0.5c0.1,0.6,0.1,0.9,0.2,1.1c0.1,0.4,0.1,0.6,0.2,0.7c0,0.4,0.1,0.7,0.2,0.9c0,0.6,0.3,1,0.8,1.3l0.1,0l0.1,0
				c0.5-0.1,0.7-0.1,0.8-0.1l0.4,0.2l0.1,0c0.3,0,0.5,0,0.6,0h0.1l0.1,0c0.1,0,0.2-0.1,0.2-0.3v-0.2l0,0c-0.1-0.5-0.3-0.8-0.6-0.9
				l-0.1,0c-0.4,0-0.7-0.1-1-0.3l0,0h-0.1c0,0-0.1-0.1-0.2-1l0.1-0.3l0-0.1c0,0,0-0.1,0-0.1v-0.1l-0.1-0.1c-0.2-0.2-0.3-0.3-0.3-0.4
				l0,0l0,0c-0.1-0.2-0.3-0.5-0.5-0.9c0,0,0.1-0.2,0.2-0.4l0-0.1c0.1-0.2,0.3-0.4,0.7-0.6h0.4v-0.3l-0.1-0.1
				c-0.2-0.2-0.2-0.3-0.2-0.3v-0.1l0.1-0.2c0.1-0.1,0.2-0.3,0.3-0.5l0-0.1c0-0.2-0.1-0.5-0.3-0.8l-0.1-0.1h0
				c-0.3-0.4-0.7-0.9-1.4-1.5l-0.1,0h-0.1c0,0-0.1,0-0.1,0c-0.1,0-0.2-0.1-0.5-0.3l-0.3-0.2v0.2c0,0-0.1,0-0.2,0c-0.2,0-0.3,0-0.4,0
				l-0.3-0.3v0.3h-0.2l-0.1-0.1l-0.1,0c-0.1,0-0.2,0.1-0.3,0.2c-0.1,0-0.2,0-0.3,0l0,0l0,0c-0.7,0.1-1.2,0.2-1.5,0.2
				c-0.4-0.1-0.6-0.2-0.7-0.2c-0.1,0-0.4,0.1-0.4,0.6c0,0.3,0.1,0.5,0.4,0.6l0.1,0c0.1,0,0.1,0,0.2,0c0.2,0.1,0.3,0.1,0.5,0.1
				c0.1,0,0.2,0,0.3,0.3c0,0,0,0.1,0,0.2c0,0.3,0,0.5,0,0.6L59,108h0.1v0.2c0,0.1,0,0.3,0,0.4c-0.1,0.7-0.2,1.2-0.2,1.4l0,0.4
				l-0.4,0.5l0.3,0.6c-0.3,0.5-0.3,0.6-0.3,0.7v0.1l0.1,0.1c0.3,0.2,0.4,0.5,0.4,0.8l0,0.1c0,0.5-0.3,0.6-0.5,0.6H58
				c-0.2,0-0.3,0.2-0.4,0.9c0,0.1,0,0.2,0.3,0.5l0.1,0.1H58c0,0,0.1,0,1-0.2l0.5,0.2l0.1,0c0.1,0,0.2,0,0.4-0.1l0.3,0l0,0
				c0.1,0,0.2-0.1,0.2-0.1l0.3,0.4H61.1z M60.2,108v-0.3c0-0.2,0-0.3,0.1-0.4l0-0.1l-0.1-0.3l0-0.1c0,0,0.1-0.2,0.9-0.4
				c0,0,0.1,0.1,0.3,0.2l0.1,0l0.1,0c0.3,0,0.5-0.1,0.6-0.1l0.1,0.1c0.4,0.1,0.5,0.2,0.5,0.2c0,0,0,0,0,0l0.1,0.1l0,0
				c0.1,0.1,0.2,0.1,0.3,0.1c0,0,0.1,0,0.2,0.4c-0.1,0.3-0.2,0.4-0.2,0.6v0.4l0,0.1c0.1,0.1,0.1,0.1,0.1,0.2c0,0.2-0.1,0.3-0.1,0.4
				l-0.2,0.1c0,0,0,0,0,0h-0.2v0.1c-0.3,0.2-0.4,0.2-0.5,0.2c0,0-0.1,0-0.3-0.1l0,0c-0.1-0.1-0.2-0.1-0.2-0.2l-0.1,0l-0.7,0.1
				l-0.2,0c0,0-0.1,0-0.6,0.2l-0.1,0c0,0-0.1-0.1-0.2-0.4C60.2,108.5,60.2,108.2,60.2,108z"/>
			<path d="M74.8,114.5L74.8,114.5c0-0.4-0.1-0.7-0.6-0.9v-0.1l-0.2,0l-0.2,0v0.1c-0.2,0-0.3,0-0.4,0c-0.2-0.7-0.2-0.9-0.3-1
				c-0.1-0.7-0.2-1.1-0.3-1.3v-0.1c0-0.2-0.1-0.6-0.4-1.1c0-0.6-0.1-1-0.3-1.3c0-0.5-0.1-0.8-0.2-0.9c-0.2-0.7-0.3-1-0.4-1.2l0-0.1
				c-0.1-0.3-0.1-0.5-0.2-0.6l-0.3-0.5h0c0-0.1-0.1-0.2-0.2-0.3l-0.1-0.1l-0.2,0c-0.3,0.1-0.5,0.1-0.6,0.3l-0.1,0.1v0.4
				c0,0.1,0,0.1,0,0.1l-0.1,0v0.1c0,0.3-0.1,0.7-0.3,1.1l0,0l0,0.1c0,0.1,0,0.2,0,0.2c0,0.1,0,0.1,0,0.2h-0.1l0,0.2
				c-0.1,0.4-0.2,1.1-0.4,2c-0.1,0.3-0.2,0.9-0.4,1.8c0,0,0,0.1-0.1,0.5c0,0,0,0.1-0.2,0.4l0,0l0,0.2c0,0,0,0,0,0h0l0,0.1
				c-0.1,0.3-0.2,0.5-0.3,0.7c-0.6,0-1.3,0.1-1.3,0.7l0,0.1c0.3,0.5,0.3,0.6,0.4,0.7l0.1,0.1l0.1,0c0.4,0,0.9,0,1.2,0h0.2
				c0,0,0.1,0,0.1,0.1l0.1,0l0.1,0c0.4-0.1,0.5-0.1,0.5-0.1l0.3,0l0,0c0.3-0.1,0.6-0.2,0.6-0.5c0-0.2-0.1-0.8-0.5-0.8l0,0
				c-0.5-0.1-0.5-0.3-0.5-0.3c0,0,0-0.1,0-0.1l0,0v-0.2c0-0.3,0.1-0.6,0.3-0.9c0.4,0,0.8,0,1.3,0l0.3,0v0l0.2,0
				c0.6,0,0.7,0.2,0.7,0.4l0,0.4c0,0.2,0,0.3,0,0.3l-0.4,0.1c-0.3,0-0.5,0.2-0.5,0.5v0.3c0,0.1,0,0.3,0.3,0.5l0,0
				c0.1,0.1,0.3,0.1,0.4,0.1c0.3,0,0.8,0,1.5,0c0,0,0.1,0,0.3,0.1l0.1,0C74.2,115.2,74.6,115,74.8,114.5z M71.4,111.3
				c-0.1,0-0.3,0.1-0.7,0.1c-0.2,0-0.3-0.1-0.3-0.1l0,0h0c-0.4,0-0.5-0.2-0.6-0.3c0.1-0.3,0.2-0.5,0.2-0.8c0.1-0.2,0.2-0.5,0.3-1.4
				c0.1-0.7,0.2-0.9,0.3-1c0,0,0,0,0.1,0c0.1,0.4,0.2,0.8,0.4,1c0.1,0.6,0.2,0.9,0.2,1c0,0.6,0.1,1,0.2,1.3L71.4,111.3z M72.1,113.7
				C72.1,113.7,72.1,113.7,72.1,113.7C72.1,113.7,72.1,113.7,72.1,113.7L72.1,113.7z"/>
			<path d="M81.1,114.5l-0.1-0.1c-0.1-0.1-0.3-0.3-0.6-0.4l-0.1,0c-0.8-0.1-1.1-0.1-1.1-0.1v-0.1h-0.1c0-0.1-0.1-0.2-0.3-0.4v-0.1
				c0,0,0-0.1,0.1-0.4l0-0.1c0-0.1,0-0.2-0.1-0.3l0.1-0.7l-0.1-0.5c0-0.1,0-0.3,0.4-0.5c0,0,0.1,0,0.1,0h0.1c0.1,0,0.2,0,0.4,0
				c0,0,0.1,0.2,0.3,0.7c0,0.5,0.2,0.9,0.7,1l0.1,0l0,0c0.4-0.2,0.6-0.5,0.6-0.8v-0.1c0-0.2,0-0.4-0.1-0.6c0,0,0-0.1,0-0.2
				c0,0,0-0.1-0.2-0.6c0,0,0-0.1,0.1-0.3l0,0v-0.1c0-0.1,0-0.2-0.1-0.5c0,0,0-0.1,0.1-0.4l0,0l0,0c0-0.2-0.1-0.3-0.1-0.3v-0.3l0,0
				c-0.1-0.1-0.2-0.3-0.3-0.3H81c-0.2,0-0.4,0.1-0.6,0.2l0,0l0,0.1c-0.1,0.8-0.2,0.9-0.2,1l0,0v0.1c0,0,0,0.2-0.7,0.3
				c-0.5-0.1-0.6-0.2-0.6-0.3c0,0,0-0.1,0-0.1h0.1l0-0.2c0.1-0.5,0.1-1,0.2-1.4l0-0.1l-0.2-0.4c0-0.1,0-0.2,0.1-0.2l0-0.1
				c0,0,0.1-0.2,1.8-0.2c0.2,0.1,0.4,0.2,0.7,0.2c0.2,0.2,0.3,0.4,0.4,0.4c0,0,0.1,0.1,0.1,0.1c0,0.4,0.1,0.8,0.2,1.2
				c0,0.2,0,0.3-0.1,0.4l0,0.2l0,0c0.2,0.3,0.5,0.6,0.9,0.7l0.1,0l0.3-0.4v-0.2c0-0.3,0-0.6,0-1l0,0l0,0c-0.1-0.2-0.1-0.3-0.1-0.3
				v-0.2l0-0.2l0.1-0.1l-0.1-0.1c0,0,0,0-0.1-0.2l0-0.4c0-0.1,0-0.3-0.1-0.5c0-0.4-0.4-0.7-1.2-0.8c-0.2,0-0.8,0-1.7,0
				c-0.4,0.1-0.5,0.1-0.5,0.1l-0.3-0.1l-0.1,0l-0.4,0c-0.5,0-0.8,0-0.9,0c-0.1,0-0.3,0-0.4-0.1l-0.1,0l-0.1,0c0,0-0.1,0-0.1,0h-1
				l-0.1,0c-0.1,0-0.3,0.2-0.5,0.4l0,0v0.1c0,0.1,0,0.2,0.2,0.6l0.1,0.1l0.7-0.1c0.3,0,0.5,0.1,0.6,0.1v0h0.2c0.1,0,0.2,0.2,0.2,0.6
				c-0.2,0.4-0.2,0.4-0.2,0.5v0.1c0,0.2,0,0.4,0.1,0.5c0,1.5-0.1,2.4-0.2,2.7l0,0l0,0c0,0.2,0,0.4,0,0.6c0,0,0,0.1-0.1,0.3l-0.1,0.3
				h0.2c0,0,0,0.1,0,0.1c0,0.1,0,0.3-0.2,0.9l0,0.1l0,0c-0.2,0.2-0.2,0.2-0.2,0.2c-0.2,0-0.4,0-0.6,0l0,0l0,0
				c-0.3,0.1-0.6,0.3-0.8,0.6l0,0v0.4l0,0.1c0.1,0.1,0.2,0.2,0.3,0.3l0.1,0c0.1,0,0.2-0.1,0.4-0.2h0.1c0.1,0,0.3,0.1,0.4,0.2
				l0.1,0.1h0.1c0.1,0,0.2,0,0.5-0.2c0.6,0.1,0.7,0.2,0.7,0.2l0.1,0.1h0.3l0.1-0.1c0.1-0.2,0.2-0.2,0.2-0.2c0.2,0,0.4,0.1,0.7,0.2
				l0.1,0l0.1,0c0.1-0.1,0.2-0.1,0.3-0.1l0.1,0c0.1,0,0.2,0,0.8-0.5L81.1,114.5z"/>
			<path d="M88,105.2h0.3l0.1-0.1c0.2-0.3,0.3-0.3,0.2-0.3h0.1l0.1,0c0.5-0.5,0.7-0.6,0.8-0.6l0.1,0c0.5-0.4,0.7-0.7,0.7-0.9
				c-0.1-0.6-0.2-1.1-0.5-1.1h-0.3l0,0c-0.1,0.1-0.1,0.1-0.2,0.2c-0.2,0-0.4,0.1-0.4,0.3v0.1l-0.4,0.2v0.1c0,0.2-0.1,0.3-0.2,0.4
				l-0.1,0.1v0.1c0,0.2-0.1,0.3-0.2,0.3l0,0c0,0.1-0.1,0.2-0.3,0.7l0,0.1l0,0.1C87.8,105,87.9,105.2,88,105.2z"/>
			<path d="M85.3,106.8c0.1,0,0.2,0,0.4,0l0.6,0.2l0,0c0.2,0,0.4,0,0.6,0h0.3c0.4,0,0.4,0.1,0.4,0.1l0,0c-0.1,0.4-0.1,0.4-0.1,0.5
				c0,0.3,0,0.4,0,0.5c0,0.2,0,0.3,0,0.4l0,0c0.1,0.2,0.1,0.3,0.1,0.4c-0.1,0.3-0.1,0.5-0.1,0.5l0,0.1c0,0.1,0,0.1,0,0.1
				c0,0-0.1-0.1-0.2-0.1h-0.2v0.2c0,0.1,0,0.2-0.1,0.4l-0.1,0.1l0.2,0.2l0,0.1c-0.1,0.1-0.1,0.2-0.1,0.3c0,0.2,0.1,0.8,0.4,0.9v0.1
				c-0.1,0-0.1,0-0.2,0h-0.2v0.1h-0.1v0.4c0,0.1,0,0.2-0.1,0.2l-0.1,0.1l0.1,0.1c0,0,0,0,0,0v0.2h0.4l0-0.1c0,0.1,0,0.2,0.1,0.4
				c0,0.2-0.1,0.4-0.1,0.5l0,0v0.3l0,0.1c-0.2-0.1-0.4-0.1-0.7,0.1c-0.5-0.1-1,0-1.5,0.2c-0.3,0.1-0.4,0.2-0.4,0.5v0.2
				c0,0.1,0.1,0.3,0.2,0.4c0,0,0,0,0,0v0.1l0.1,0.1c0,0,0.1,0.1,0.1,0.1v0.1h0.2c0.1,0,0.2,0,0.5-0.1c0.1,0.1,0.3,0.1,0.4,0.1
				c0,0,0.1,0,0.4-0.1c0,0,0,0,0.1,0v0.2l0.3-0.2h0.6c0,0,0.1,0,0.1,0l0.1,0l0.1,0c0.1,0,0.4-0.1,1.3-0.2c0.4,0.2,0.4,0.2,0.4,0.2
				h0.1l0,0c0.2-0.1,0.3-0.1,0.3-0.1c0.2,0,0.4,0,0.7,0.1c0.9,0,1-0.4,1-0.7v-0.1c0-0.2-0.1-0.4-0.3-0.6c0-0.3-0.2-0.4-0.4-0.4
				l-0.5,0l0,0c-0.3,0.1-0.7,0.1-1.1,0.1l0,0l-0.3,0.1c0,0,0,0,0,0c0-0.2,0-0.3,0-0.4c0-0.2-0.1-0.3-0.1-0.4l0-0.3l0-0.3l0,0
				c0,0-0.1-0.2-0.1-0.9l0-0.2h-0.1c0.1-0.3,0.1-0.5,0.1-0.7c0-0.2,0-0.4,0-0.5l0.1-0.3l0,0c-0.1-0.7-0.1-1.6-0.1-2.6V107
				c0,0,0-0.1,0-0.1s0,0,0.1,0h0.1l0.1,0c0.2-0.2,0.5-0.3,0.9-0.2c0.4,0.1,0.5,0.1,0.6,0.1l0.1,0c0.1,0,0.3-0.1,0.4-0.1v0.1l0.6-0.3
				l-0.2-1.1l0,0c-0.2-0.2-0.6-0.3-1.3-0.3c0,0,0,0,0,0c-0.4,0.1-0.9,0.1-1.5,0.1h-0.2c-0.1,0-0.2,0-0.4,0l0,0l0,0
				c-0.2,0-0.4,0.1-0.8,0.1c-0.6-0.2-0.6-0.2-0.7-0.2l0,0c-0.2,0-0.3,0.1-0.3,0.1l-0.3-0.1l-0.1,0c-0.4,0.1-0.9,0.2-1,0.5
				c-0.1,0.1-0.1,0.4-0.1,0.8l0,0.1l0.1,0.1C85,106.7,85.1,106.8,85.3,106.8z M88.9,111.2C88.9,111.2,88.9,111.2,88.9,111.2
				C88.9,111.2,88.9,111.2,88.9,111.2C88.9,111.2,88.9,111.2,88.9,111.2C88.9,111.2,88.9,111.2,88.9,111.2z"/>
			<path d="M87.1,113.6L87.1,113.6L87.1,113.6c0.3-0.1,0.4-0.2,0.4-0.5V113l-0.2-0.2h-0.1c-0.3,0-0.4,0.4-0.4,0.5l0,0.1l0,0
				C86.9,113.4,86.9,113.6,87.1,113.6z"/>
			<path d="M100.1,113.7L100.1,113.7l-0.2,0l-0.2,0v0.1c-0.2,0-0.3,0-0.4,0c-0.2-0.7-0.2-0.9-0.3-1c-0.1-0.7-0.2-1.1-0.3-1.3v-0.1
				c0-0.2-0.1-0.6-0.4-1.1c0-0.6-0.1-1-0.3-1.3c0-0.5-0.1-0.8-0.2-0.9c-0.2-0.7-0.3-1-0.4-1.2l0-0.1c-0.1-0.3-0.1-0.5-0.2-0.6
				l-0.3-0.5h0c0-0.1-0.1-0.2-0.2-0.3l-0.1-0.1l-0.2,0c-0.3,0.1-0.5,0.1-0.6,0.3l-0.1,0.1v0.4c0,0.1,0,0.1,0,0.1l-0.1,0v0.1
				c0,0.3-0.1,0.7-0.3,1.1l0,0l0,0.1c0,0.1,0,0.2,0,0.2c0,0.1,0,0.1,0,0.2h-0.1l0,0.2c-0.1,0.4-0.2,1.1-0.4,2
				c-0.1,0.3-0.2,0.9-0.4,1.8c0,0,0,0.1-0.1,0.5c0,0,0,0.1-0.2,0.4l0,0l0,0.2c0,0,0,0,0,0h0l0,0.1c-0.1,0.3-0.2,0.5-0.3,0.7
				c-0.6,0-1.3,0.1-1.3,0.7l0,0.1c0.3,0.5,0.3,0.6,0.4,0.7l0.1,0.1l0.1,0c0.4,0,0.9,0,1.2,0h0.2c0,0,0.1,0,0.1,0.1l0.1,0l0.1,0
				c0.4-0.1,0.5-0.1,0.5-0.1l0.3,0l0,0c0.3-0.1,0.6-0.2,0.6-0.5c0-0.2-0.1-0.8-0.5-0.8l0,0c-0.5-0.1-0.5-0.3-0.5-0.3
				c0,0,0-0.1,0-0.1l0,0v-0.2c0-0.3,0.1-0.6,0.3-0.9c0.4,0,0.8,0,1.3,0l0.3,0v0l0.2,0c0.6,0,0.7,0.2,0.7,0.4l0,0.4
				c0,0.2,0,0.3,0,0.3l-0.4,0.1c-0.3,0-0.5,0.2-0.5,0.5v0.3c0,0.1,0,0.3,0.3,0.5l0,0c0.1,0.1,0.3,0.1,0.4,0.1c0.3,0,0.8,0,1.5,0
				c0,0,0.1,0,0.3,0.1l0.1,0c0.5,0,0.9-0.2,1.1-0.7l0-0.1C100.8,114.2,100.7,113.8,100.1,113.7z M97.4,111.3c-0.1,0-0.3,0.1-0.7,0.1
				c-0.2,0-0.3-0.1-0.3-0.1l0,0h0c-0.4,0-0.5-0.2-0.6-0.3c0.1-0.3,0.2-0.5,0.2-0.8c0.1-0.2,0.2-0.5,0.3-1.4c0.1-0.7,0.2-0.9,0.3-1
				c0,0,0,0,0.1,0c0.1,0.4,0.2,0.8,0.4,1c0.1,0.6,0.2,0.9,0.2,1c0,0.6,0.1,1,0.2,1.3L97.4,111.3z M98.1,113.7
				C98.1,113.7,98.1,113.7,98.1,113.7C98.1,113.7,98.1,113.7,98.1,113.7L98.1,113.7z"/>
			<path d="M8.2,122.1c-0.1,0-0.2,0-0.3,0c0-0.1,0-0.2,0-0.3l0,0l0,0c0-0.1,0-0.1,0-0.2c0-0.2,0-0.5,0-0.9l0-0.1c0-0.1,0-0.1,0-0.2
				c0-0.1,0-0.1,0-0.2c0-0.3,0-0.6,0-0.8c0,0,0-0.1-0.1-0.3c0,0,0-0.1,0-0.2l0,0l0,0c0-0.1,0-0.2,0-0.2c0,0,0,0,0,0
				c0-0.2,0-0.3,0-0.3V118l-0.2-0.2c0-0.2-0.3-0.2-1.3-0.3l0,0l0,0c-0.1,0-0.4,0.1-0.4,0.4c0,0.1,0.1,0.4,0.5,0.5c0.1,0,0.1,0,0.2,0
				c0.4,0,0.4,0.1,0.4,0.1c0,0,0,0.1-0.1,0.2l0,0.1l0,0.1c0,0.1,0,0.2,0,0.3h0l0,0.2c0,0,0,0,0,0c-0.4-0.2-0.6-0.3-0.7-0.3l0,0
				L5.9,119c-0.3,0-0.5,0.1-0.6,0.3c-0.2,0.2-0.4,0.4-0.5,0.7c-0.1,0.1-0.2,0.5-0.2,1.2c0.1,0.6,0.1,0.7,0.2,0.7
				c0,0.3,0.2,0.5,0.5,0.8c0.1,0.1,0.3,0.2,0.7,0.3l0,0l0.1,0l0.2-0.1c0.1,0,0.2,0,0.5,0l0.1,0l0.1-0.1c0,0,0.1-0.1,0.2-0.2
				c0,0.1,0,0.3,0.4,0.4c0.1,0,0.2,0,0.2-0.1c0.1,0,0.1,0,0.2,0H8l0,0c0,0,0.1-0.1,0.1-0.1l0.2,0.1l0.1,0c0.1-0.1,0.2-0.2,0.3-0.3
				l0-0.2l0-0.1C8.5,122.2,8.3,122.1,8.2,122.1z M6.9,121.9c-0.1,0.1-0.2,0.1-0.3,0.2c-0.2,0-0.4,0-0.5,0.1c0,0-0.1,0-0.1-0.1
				c-0.2-0.2-0.3-0.2-0.3-0.3c-0.1-0.3-0.1-0.4-0.2-0.6l0-0.3c0-0.5,0.1-0.6,0.1-0.6h0.1l0-0.1c0-0.1,0.1-0.2,0.2-0.3
				c0.2-0.1,0.3-0.2,0.3-0.2h0.2v-0.1l0,0c0.2,0.2,0.3,0.3,0.4,0.3c0,0,0.1,0,0.1,0.3c0.1,0.4,0.1,0.5,0.1,0.6
				C7.1,121.1,7,121.5,6.9,121.9z"/>
			<path d="M11.1,118.9L11.1,118.9c-0.6,0-1.1,0.2-1.6,0.5l0,0l0,0.1c0,0.1-0.1,0.2-0.2,0.3l0,0.1c-0.1,0.1-0.1,0.4-0.2,0.7l0,0.7
				c0.1,0.4,0.2,0.7,0.3,0.9c0.2,0.3,0.3,0.4,0.3,0.3v0.1l0.1,0c0.2,0.1,0.3,0.2,0.3,0.2l0.1,0.1h0.1c0.3,0,0.6,0,0.8,0.1h0.1l0.2,0
				c0.3-0.1,0.5-0.1,0.6-0.2l0.1,0v0c0.1,0,0.1-0.1,0.2-0.2c0.3-0.1,0.4-0.3,0.4-0.5v0c0-0.2-0.1-0.3-0.2-0.4l0,0h0l0-0.1l-0.1,0.1
				v0l-0.1,0.1h-0.1v0.1l-0.1,0.1v0c-0.1,0-0.1,0.1-0.1,0.1h-0.1l-0.1,0.1c-0.1,0.1-0.1,0.2-0.1,0.2l-0.1,0
				c-0.2,0.1-0.3,0.1-0.4,0.1l-0.1-0.1c-0.3-0.1-0.3-0.1-0.3-0.1l-0.1-0.1h-0.1c0,0-0.1,0-0.2-0.3l0-0.1c0-0.1-0.1-0.1-0.1-0.1
				l0.1,0v-0.2c0,0,0,0,0.1,0c0.1,0,0.2,0,0.3,0.1l0,0l0.1,0c0.1,0,0.2,0,0.2,0c0,0,0,0,0.1,0l0.1,0l0.2-0.1c0,0,0,0,0,0l0.1,0.1
				l0.1-0.1c0,0,0,0,0.1,0h0.1l0,0c0.1-0.1,0.2-0.1,0.3-0.1l0.2,0l0,0c0.4-0.1,0.5-0.4,0.5-0.5c0-0.6-0.2-1.1-0.5-1.3
				c-0.1-0.2-0.2-0.2-0.4-0.3l0,0c-0.1-0.1-0.2-0.2-0.3-0.2l0,0l0,0C11.2,118.9,11.2,118.9,11.1,118.9L11.1,118.9z M11.4,119.8v0.2
				l0.1,0c0.1,0,0.2,0.1,0.2,0.2l0,0.1l-0.2,0.1c-0.1,0-0.1,0-0.1,0c-0.1,0-0.2,0-0.3,0.1l-0.1,0l-0.1,0l-0.4,0v0c0,0,0,0-0.1,0
				l0-0.1h-0.2c0,0-0.1,0-0.1,0c-0.1,0-0.1,0-0.1,0c0,0,0,0,0-0.2c0.1-0.4,0.3-0.4,0.4-0.4l0.1,0l0.1-0.1c0,0,0.1,0,0.3-0.1
				c0,0,0.1,0,0.2,0l0.1,0l0.1,0C11.3,119.8,11.3,119.8,11.4,119.8C11.3,119.8,11.3,119.8,11.4,119.8z"/>
			<path d="M8.3,126.9C8.3,126.9,8.3,126.9,8.3,126.9l-0.1-0.1l-0.3,0v-0.2c0-0.4,0-0.5,0-0.5l0-0.1c0-0.1,0-0.1,0-0.2
				c0,0,0-0.1,0-0.2l0-0.1l0-0.2l0,0c0-0.1,0-0.2,0-0.2v-0.2c0.1-0.2,0.1-0.2,0.1-0.3c0-0.1,0-0.1-0.1-0.3c0-0.2-0.1-0.4-0.7-0.4
				l0,0l0,0c0,0-0.1,0-0.1,0c-0.6,0-0.7,0.2-0.7,0.4l0,0.1c0.1,0.2,0.2,0.5,0.4,0.5c0,0,0.1,0,0.2,0c0,0,0,0,0.1,0.1l0,0.2l0,0
				c0,0.1,0,0.2,0,0.2c0,0,0,0.1-0.1,0.3l0,0.3c0,0,0,0.1-0.2,0.3l0,0.1c-0.1,0.2-0.2,0.3-0.4,0.5l-0.1,0.1l-0.1,0l0,0
				c-0.1,0-0.1,0-0.2,0c0,0-0.1-0.1-0.2-0.5c0-0.1,0-0.1,0-0.1c0,0,0-0.1,0-0.2c0-0.4,0-0.6,0-0.6c0,0,0,0,0-0.2
				c0-0.1,0-0.2,0.1-0.3l0,0l0-0.2h0c0-0.2-0.1-0.4-0.3-0.5L5.6,124H5.2c-0.1,0-0.3,0-0.5,0c-0.1,0-0.3,0.1-0.4,0.3l0,0.1l0.1,0.1
				c0,0.1,0.2,0.3,0.3,0.3c0,0,0,0,0,0c0.2,0,0.2,0,0.2,0.1v1.3c0,0.1,0,0.2,0,0.2C5,126.7,5,126.7,5,126.7v0.1
				c0,0.1,0.1,0.2,0.3,0.6l0,0c0,0,0.1,0.1,0.1,0.1l0,0l0,0c0.1,0,0.3,0.1,0.5,0.1h0.2l0.1,0.1h0.1l0,0l0,0l0.1-0.1c0,0,0.1,0,0.2,0
				h0.1l0.1-0.1c0.1-0.1,0.1-0.1,0.1-0.1c0.2,0.2,0.4,0.2,0.6,0.2c0,0,0,0,0,0l0.2,0c0,0,0,0,0.1,0.1l0.1,0h0.2l0.1,0
				c0.1,0,0.1,0,0.1,0h0.1l0,0c0,0,0,0,0,0l0.1,0.1v-0.5L8.3,126.9L8.3,126.9z"/>
			<path d="M12.8,126.9L12.8,126.9c-0.2-0.1-0.2-0.2-0.2-0.2l0,0l-0.1-0.1c0,0-0.1,0-0.2,0l0.1-0.2c0,0,0.1,0.1,0.1,0.1
				c0.2,0,0.3-0.1,0.3-0.2l0-0.1c0-0.1-0.1-0.2-0.2-0.2l-0.1,0l-0.1,0c-0.2,0.1-0.2,0.2-0.2,0.2c0,0,0,0.1,0,0.1h-0.1
				c0-0.2,0-0.3,0-0.4c0-0.2,0-0.3,0.1-0.4l0-0.3h-0.1c0-0.1,0-0.1,0-0.2c0-0.1,0-0.2-0.1-0.2c-0.1-0.1-0.1-0.2-0.1-0.3
				c0-0.1-0.1-0.3-0.3-0.5l-0.1,0c-0.2,0-0.3,0-0.4-0.1l0,0l0,0c-0.1,0-0.2,0-0.3,0c-0.1,0-0.1,0-0.5,0.3l0,0
				c-0.1,0.1-0.1,0.1-0.2,0.2h0c0,0,0,0,0,0c0-0.2-0.2-0.3-0.5-0.4l-0.1,0c0,0-0.1,0-0.1,0c0,0-0.1,0-0.1,0c-0.2,0-0.6,0-0.6,0.3
				l0,0.1c0,0.1,0.1,0.2,0.5,0.4l0.1,0c0.1,0,0.1,0,0.1,0l0,0.1l0,0.2c0,0.1,0,0.1,0,0.2l0,0.1l0,0.1v0.7c0,0,0,0.1-0.1,0.3l0,0.2
				c0,0,0,0,0,0c0,0-0.1,0-0.1,0l-0.1,0l-0.1,0.1c-0.2,0.3-0.2,0.4-0.2,0.5v0.1l0,0.1c0.1,0.2,0.3,0.3,0.6,0.3l0,0l0,0
				c0,0,0.1,0,0.3-0.1c0,0,0.1,0,0.2,0.1l0.1,0c0.1,0,0.1,0,0.2-0.1l0.1,0c0.1,0,0.2,0,0.3-0.2l0,0.1H11l0.3,0.2v-0.1c0,0,0,0,0,0
				l0.1,0l0.1,0l0.3,0.1l0.1-0.1c0,0,0,0,0-0.1c0,0,0,0,0.1,0.1l0.1,0.1l0.1,0c0,0,0.1,0,0.2,0l0.2,0v0c0.2,0,0.3-0.1,0.4-0.3l0-0.1
				v-0.1C13,127.1,13,127,12.8,126.9z M12.6,126.1c0.1,0,0.1,0.1,0.1,0.1c0,0.1,0,0.1,0,0.1l0-0.1c0,0,0,0,0,0
				C12.7,126.2,12.7,126.2,12.6,126.1C12.6,126.2,12.6,126.2,12.6,126.1L12.6,126.1C12.5,126.1,12.6,126.1,12.6,126.1z M12.5,126.2
				L12.5,126.2C12.5,126.3,12.6,126.3,12.5,126.2C12.6,126.3,12.6,126.3,12.5,126.2l0,0.1C12.6,126.3,12.5,126.3,12.5,126.2
				L12.5,126.2z M11.5,126.2c0,0.2,0,0.3-0.1,0.4c-0.1,0-0.2,0.1-0.2,0.1c-0.1,0-0.2,0.1-0.2,0.2l-0.1-0.1l0,0
				c-0.1-0.1-0.3-0.2-0.4-0.2c0,0,0,0,0,0l0-0.1c0,0,0,0,0-0.1l0,0l0-0.1l0-0.1l0,0c0,0,0,0,0,0l0-0.1c0-0.1,0-0.2,0.1-0.3
				c0.1-0.1,0.2-0.2,0.2-0.3c0,0,0-0.1,0.2-0.2c0.1,0,0.2-0.1,0.3-0.2c0.1,0,0.1,0.1,0.2,0.1c0,0.1,0.1,0.2,0.1,0.3c0,0,0,0.1,0,0.1
				l0,0.1l0,0.1c0.1,0.2,0.1,0.3,0.1,0.3C11.5,125.9,11.5,126.1,11.5,126.2z"/>
			<path d="M17.1,126.6L17.1,126.6l-0.2-0.1c-0.3,0-0.4,0.1-0.4,0.3c0,0.1,0,0.1,0,0.1l0,0l-0.1-0.2c0,0,0-0.1,0-0.1l0.1-0.2h-0.1
				c0-0.2,0-0.4,0-0.5c0-0.1,0-0.1-0.1-0.2c0-0.1,0-0.3,0-0.5V125c0-0.1,0-0.2-0.1-0.2c-0.1-0.3-0.2-0.4-0.4-0.4
				c-0.1-0.1-0.2-0.2-0.4-0.3c-0.2,0-0.3-0.1-0.3-0.1l-0.1,0h-0.1c0,0-0.1,0-0.2,0.1c0,0-0.1,0-0.1,0l-0.1,0l-0.1,0
				c0,0-0.1,0-0.1,0.1c-0.2,0-0.3,0.1-0.4,0.1c-0.2,0.1-0.4,0.2-0.5,0.4c0,0,0,0,0,0c0,0,0,0,0,0l-0.1,0c-0.2,0-0.2,0.2-0.2,0.4
				l0,0.1l0.2,0.1c0.1,0.2,0.4,0.2,0.5,0.3c0.1,0,0.1,0,0.2-0.1l0.1,0l0-0.1c0.1-0.3,0.1-0.5,0.1-0.5c0,0,0.1,0,0.3-0.1
				c0,0,0.1,0,0.1,0.1l0,0H15c0,0,0.1,0,0.2,0c0,0,0,0,0,0l0.1,0.1l0.2,0c0,0,0.1,0,0.1,0c0,0,0,0,0,0v0.1l0,0
				c0.1,0.1,0.1,0.2,0.1,0.2l-0.2,0.1l-0.1,0l-0.1,0c-0.5,0.2-0.6,0.2-0.7,0.2c-0.1,0-0.1,0-0.2,0h-0.1c-0.1,0-0.2,0-0.3,0.1
				c0,0-0.1,0-0.1,0l-0.1,0l0,0h-0.1v0.1c0,0,0,0,0,0h0l-0.1,0.1c-0.2,0.3-0.3,0.5-0.3,0.8c0,0.2,0.1,0.4,0.4,0.7l0,0l0.1,0
				c0.1,0,0.3,0.1,0.4,0.2l0.1,0l0.1,0c0.1,0,0.1,0,0.1,0l0.1,0l0.1,0c0.3,0,0.6-0.1,0.7-0.2c0.1,0,0.1,0,0.3-0.1l0.1,0
				c0.1-0.1,0.1-0.1,0.1-0.1c0.1,0,0.1,0.1,0.1,0.1c0,0.3,0.4,0.3,0.6,0.3h0l0.2-0.1l0-0.1c0-0.1,0-0.1,0.1-0.1
				c0.2-0.1,0.3-0.3,0.3-0.4l0,0C17.2,126.7,17.2,126.7,17.1,126.6z M15.7,126.2c0,0.2-0.1,0.3-0.1,0.3c-0.1,0.1-0.2,0.2-0.3,0.3
				c-0.2,0.1-0.3,0.1-0.4,0.2c0,0-0.1,0-0.1,0l0,0l-0.1,0c-0.3-0.1-0.4-0.2-0.4-0.2l0,0c0,0,0-0.1,0-0.2l0-0.2c0,0,0.1,0,0.3-0.1
				c0,0,0.1,0,0.2,0.1l0.2,0l0.1-0.1c0,0,0-0.1,0-0.1c0.2,0,0.3,0,0.4-0.1l0,0l0,0c0.1,0,0.3,0,0.3,0
				C15.7,126.1,15.7,126.1,15.7,126.2L15.7,126.2z"/>
			<path d="M23.6,124.3c0,0-0.1,0-0.5,0.1l-0.1,0l0,0.1c-0.1,0.2-0.2,0.3-0.2,0.4h-0.1v0.2c0,0.5-0.1,0.7-0.2,0.7l-0.1,0.1v0.1
				c0,0.4-0.3,0.7-0.8,1.1c0,0,0,0,0,0c0-0.3-0.2-0.6-0.9-0.6h-0.1l0,0c-0.1,0.1-0.2,0.1-0.3,0.3c-0.1-0.3-0.3-0.5-0.4-0.6
				c-0.2-0.1-0.2-0.3-0.2-0.6l0-0.1c-0.2-0.5-0.4-1.2-0.4-1.9l0-0.3c-0.1-0.5-0.1-0.6-0.1-0.6c0-0.3,0.1-0.5,0.1-0.6l0.1,0.1v-0.3
				c0-0.4,0.1-0.6,0.1-0.7l0,0V121c0-0.2,0.1-0.5,0.3-0.7l0.1-0.1v-0.1c0-0.1,0-0.2,0.3-0.3l0.1,0l0-0.1c0.1-0.1,0.1-0.2,0.2-0.2
				c0,0,0.1,0,0.1,0.1l0.1,0.1h0.2l0,0c0.1-0.1,0.2-0.2,0.3-0.4c0.3,0.1,0.5,0.1,0.5,0.1c0,0.2,0.1,0.5,0.3,0.5
				c0.1,0.1,0.2,0.1,0.2,0.4v0l0,0c0.3,0.4,0.4,0.8,0.4,1.1c0,0.2,0,0.2,0,0.3v0.1l0,0.1c0.2,0.7,0.5,1,0.7,1c0.1,0,0.3,0,0.3-0.1
				c0.3-0.1,0.4-0.7,0.4-1.4l0-0.1c-0.2-0.7-0.3-0.9-0.3-0.9v0c0,0,0-0.1,0-0.1h0.1l0-0.2c0-0.4,0.1-0.8,0.1-1.2l0,0l0,0
				c-0.1-0.4-0.4-1-0.8-1h-0.1c-0.1,0-0.2,0.1-0.4,0.4c-0.1,0.2-0.2,0.4-0.2,0.4c0,0-0.1-0.1-0.1-0.1l0.1-0.2l0-0.1v-0.1
				c0-0.1-0.1-0.2-0.2-0.3c0,0-0.1,0-0.3,0.1h0v-0.1l-0.2,0c-0.3,0-0.5-0.1-0.6-0.3l-0.1-0.1l-0.1,0.1c-0.1,0-0.2,0.1-0.3,0.2
				l-0.2,0l-0.1,0c-0.4,0.2-0.7,0.4-0.9,0.4l-0.1,0l0,0c-0.3,0.4-0.4,0.5-0.4,0.6h-0.1l-0.1,0.1c-0.1,0.3-0.2,0.4-0.2,0.4h-0.1v0.2
				c0,0.3-0.1,0.5-0.2,0.7l0,0l0,0.1c0,0.5-0.1,1-0.2,1.7v0.2c0,0.2,0,0.5-0.1,0.7l0,0.1c0,0.1,0,0.2,0.1,0.4l0,0.2l0.1,0.5
				c0,0.2,0,0.3,0,0.6l0,0l0,0c0.1,0.4,0.1,0.5,0.1,0.5c0,0.4,0.2,0.9,0.8,1.5c0,0.2,0.2,0.4,0.5,0.7l0,0c0.6,0.3,0.8,0.4,0.8,0.4
				l0.1,0.1l0.3-0.1l0.1,0c0,0,0.1,0,0.3,0.1l0.1,0l0.1,0c0.4-0.1,0.6-0.2,0.8-0.3l0.8-0.2l0-0.1c0.1-0.1,0.1-0.2,0.1-0.2
				c0,0,0.1,0,0.2,0.1l0.1,0c0.2,0,0.3-0.3,0.3-0.6l0.3-0.3v-0.1c0,0,0-0.1,0-0.1c0,0,0.1-0.1,0.2-0.4l0,0l0-0.1
				c0-0.7,0.1-0.9,0.1-0.9l0-0.1l0-0.1C24.1,124.7,24,124.3,23.6,124.3z"/>
			<path d="M31.2,126.6L31.2,126.6L31.2,126.6c-0.4,0-0.6-0.1-0.8-0.3l-0.1-0.1h0c0-0.1-0.1-0.3-0.1-1l0.1-0.3l0-0.1
				c0,0,0-0.1,0-0.1v-0.1l-0.1-0.1c-0.2-0.2-0.2-0.3-0.3-0.4l0-0.1c-0.1-0.2-0.2-0.5-0.4-0.9c0,0,0.1-0.2,0.2-0.4l0-0.1
				c0-0.2,0.2-0.4,0.5-0.6h0.3v-0.3l0,0c-0.1-0.2-0.2-0.3-0.2-0.3v-0.1l0.1-0.2c0.1-0.1,0.2-0.3,0.2-0.5l0-0.1
				c0-0.2-0.1-0.4-0.3-0.8l-0.1-0.1h0c-0.2-0.4-0.6-0.9-1.1-1.5l-0.1-0.1h-0.1c0,0-0.1,0-0.1,0c-0.1,0-0.2-0.1-0.4-0.3l-0.3-0.2v0.3
				c0,0-0.1,0-0.1,0c-0.2,0-0.2,0-0.3,0l-0.3-0.3v0.4h-0.1l-0.1-0.1l-0.1,0c-0.1,0-0.2,0.1-0.2,0.1c-0.1,0-0.1,0-0.2,0l0,0l0,0
				c-0.6,0.1-1,0.2-1.2,0.2c-0.4-0.2-0.5-0.2-0.6-0.2c-0.2,0-0.4,0.1-0.4,0.6c0,0.3,0.2,0.5,0.3,0.6l0.1,0c0,0,0.1,0,0.1,0
				c0.2,0.1,0.3,0.1,0.4,0.1c0.1,0,0.1,0.1,0.2,0.3c0,0,0,0.1,0,0.2c0,0.3,0,0.5,0,0.6l-0.1,0.3h0.1v0.2c0,0.1,0,0.3,0,0.4
				c-0.1,0.7-0.1,1.2-0.1,1.4l0,0.4l-0.3,0.5l0.2,0.6v0c-0.2,0.5-0.2,0.6-0.2,0.7v0.1l0.1,0.1c0.2,0.2,0.3,0.5,0.3,0.9l0,0.2
				c0,0.6-0.3,0.6-0.4,0.6h-0.5c-0.2,0-0.3,0.2-0.4,0.9c0,0.1,0,0.2,0.2,0.5l0.1,0.1h0.1c0,0,0.1,0,0.8-0.2l0.4,0.1l0.1,0
				c0.1,0,0.2,0,0.3-0.1l0.2,0l0,0c0.1,0,0.1,0,0.2-0.1l0.3,0.4h0.2c0,0,0.3,0,0.3-0.3c0.2-0.3,0.3-0.5,0.3-0.6h0l0-0.1V127h-0.1
				c-0.1-0.2-0.3-0.3-0.6-0.3c-0.3,0-0.5-0.3-0.6-0.8l0.1-0.5l0,0c0,0,0-0.1,0-0.2v-0.1c0.2-0.2,0.2-0.5,0.2-0.8
				c0.2-0.6,0.4-0.6,0.5-0.6c0.1,0,0.4-0.1,0.7-0.3c0.1,0,0.2,0.2,0.3,0.5c0.1,0.6,0.1,0.9,0.2,1.1c0,0.4,0.1,0.6,0.1,0.7
				c0,0.4,0.1,0.7,0.1,0.9c0,0.6,0.2,1,0.6,1.3l0.1,0l0.1,0c0.4,0,0.6-0.1,0.6-0.1l0.3,0.2l0.1,0c0.2,0,0.4,0,0.5,0h0.2l0,0
				c0.1-0.1,0.2-0.2,0.2-0.3l0-0.2C31.6,127,31.4,126.7,31.2,126.6z M29.2,121c0,0.1,0.1,0.1,0.1,0.2c0,0.2-0.1,0.4-0.1,0.5
				l-0.1,0.1h-0.2v0.1c-0.2,0.2-0.3,0.2-0.4,0.2c0,0-0.1,0-0.2-0.1l0,0c0-0.1-0.1-0.1-0.2-0.2l-0.1,0l-0.6,0.1l-0.1,0l0,0
				c0,0-0.1,0-0.5,0.2h0c0,0-0.1-0.1-0.1-0.4c0-0.4,0-0.7,0-0.9v-0.3c0-0.2,0-0.3,0.1-0.4l0,0l0-0.3v-0.1c0,0,0-0.2,0.7-0.4
				c0,0,0.1,0.1,0.3,0.2l0.1,0l0.1,0c0.2,0,0.4-0.1,0.5-0.1l0.1,0c0.3,0.1,0.4,0.2,0.4,0.2c0,0,0,0,0,0l0.1,0.1l0,0
				c0.1,0,0.1,0.1,0.2,0.1c0,0,0.1,0.1,0.1,0.4c-0.1,0.3-0.2,0.4-0.2,0.6L29.2,121L29.2,121z"/>
			<path d="M36.3,119.6l0.5-0.2c0.2,0,0.3,0,0.4,0c0.1,0,0.3,0,0.4-0.1l0.1-0.1l0-0.1c0-0.3,0-0.5-0.1-0.6c-0.1-0.4-0.6-0.5-0.8-0.5
				l-0.1,0l-0.2,0.1c0,0-0.1,0-0.2-0.1l-0.1,0c0,0-0.2,0-0.5,0c-0.3-0.1-0.5-0.1-0.6-0.2l0,0l0,0c-0.1,0-0.3,0-0.3,0h-0.1
				c-0.5,0-0.9,0-1.2-0.1c-0.6,0-0.9,0.1-1.1,0.3l-0.2,1.1l0.5,0.3v-0.2c0.1,0,0.1,0,0.2,0.1l0.1,0c0.1,0,0.2,0,0.5-0.3
				c0.3,0,0.5,0.1,0.7,0.3l0,0l0.1,0c0.2,0,0.2,0.1,0.2,0.2l0,0.1c-0.1,1-0.2,1.8-0.2,2.5l0,0l0.1,0.3v0c0,0,0,0.1-0.1,0.4l0,0l0,0
				c0,0.1,0.1,0.4,0.2,0.6h0l0,0.2c0,0.7-0.1,0.8-0.1,0.9l0,0l0,0.3v0.3c0,0.1,0,0.2-0.1,0.4c0,0.1,0,0.2,0,0.4l-0.2-0.1l0,0
				c-0.3,0.1-0.6,0.1-0.9,0.2l-0.3-0.1l-0.1,0c-0.1,0-0.4,0-0.4,0.4c-0.2,0.2-0.2,0.4-0.2,0.6v0.1c0,0.3,0.1,0.7,0.9,0.7h0.1l0,0
				c0.2-0.2,0.4-0.2,0.4-0.2c0,0,0.1,0,0.2,0.1l0,0h0.1c0.1,0,0.1,0,0.4-0.2c0.7,0.1,0.9,0.1,1,0.2l0.1,0l0.1-0.1h0.5l0.3,0.2v-0.3
				c0,0,0,0,0,0c0.3,0.1,0.3,0.1,0.3,0.1c0.1,0,0.2,0,0.4-0.1c0.3,0.1,0.4,0.1,0.5,0.1h0.2v-0.1c0,0,0.1,0,0.1-0.1l0.1-0.1v-0.1
				c0,0,0,0,0,0c0.1-0.1,0.1-0.3,0.1-0.4v-0.2c0-0.3-0.1-0.4-0.4-0.5c-0.4-0.2-0.8-0.4-1.2-0.5l0,0l0,0c-0.2,0.1-0.4,0.1-0.5,0.2
				l0-0.4l0,0c0-0.1,0-0.3-0.1-0.4c0-0.1,0-0.2,0-0.3l0.4,0v-0.2c0,0,0,0,0,0l0-0.1l0-0.1c0-0.1-0.1-0.2-0.1-0.3l0-0.4h-0.1v-0.1
				h-0.2c0,0-0.1,0-0.1,0v-0.1c0.3-0.1,0.3-0.6,0.4-0.9c0-0.1,0-0.2-0.1-0.3l0-0.1l0.2-0.2l0-0.1c-0.1-0.2-0.1-0.3-0.1-0.4l0-0.2
				h-0.2c0,0-0.1,0-0.1,0c0,0,0-0.1,0-0.1l0,0c0-0.1,0-0.3-0.1-0.5c0-0.1,0-0.2,0.1-0.5c0,0,0-0.1,0-0.3c0,0,0-0.2,0-0.5
				c0,0,0-0.1-0.1-0.4l0-0.1c0,0,0.1-0.1,0.3-0.1h0.3C35.9,119.5,36.1,119.5,36.3,119.6L36.3,119.6z"/>
			<path d="M35.5,125.4h-0.1l-0.1,0.3v0.1c0,0.3,0.2,0.4,0.3,0.5l0.1,0c0.2,0,0.2-0.2,0.2-0.2l0,0l0,0
				C35.9,125.8,35.8,125.4,35.5,125.4z"/>
			<path d="M44,124.6c-0.1-0.4-0.2-0.7-0.4-0.8c-0.1-0.4-0.3-0.7-0.4-0.8l0,0c-0.3-0.2-0.6-0.4-0.8-0.5c-0.4-0.2-1.1-0.4-1.9-0.5
				c-0.1-0.2-0.3-0.3-0.5-0.4c-0.2-0.3-0.4-0.6-0.4-1c0.1-0.5,0.1-0.7,0.2-0.7c0.6-0.7,0.8-0.8,0.8-0.8c0.2,0,0.5,0.1,0.7,0.2l0.1,0
				l0.1-0.1h0.1l0.1,0.1c0.4,0.2,0.6,0.5,0.6,0.7c0.2,1,0.3,1.4,0.5,1.6l0,0.1h0l0,0.1h0.5l0,0c0.2-0.1,0.3-0.3,0.4-0.6l0,0l0,0
				c-0.1-0.6-0.1-0.9-0.2-1c0.1-0.6,0.2-1.1,0.2-1.5c0-0.2-0.2-0.4-0.5-0.6l0,0h-0.1c-0.1,0-0.2,0.1-0.4,0.4c-0.6-0.2-1-0.4-1.2-0.4
				c-0.1,0-0.2,0-0.3,0c-0.3,0-0.5,0-0.6,0c-0.4,0-0.8,0.3-1.4,0.8l0,0.1c-0.4,0.9-0.6,1.5-0.6,1.8c0,0.5,0.1,0.8,0.2,1h0l0.2,0.3
				c0.5,0.9,0.7,1.1,0.9,1.1c0.1,0.1,0.2,0.1,0.3,0.2l0,0l0.4,0c0,0,0.1,0,0.5,0.3l0.1,0.1l0.5-0.1c0.8,0.4,1,0.7,1,0.9
				c0,0,0,0.1-0.1,0.2l0,0.1l0,0.2c0,0.1,0,0.3-0.1,0.4l0,0.1c-0.1,0.1-0.1,0.3-0.2,0.4l-0.1,0.1c0,0-0.1,0.1-0.1,0.1
				c-0.4,0.3-0.8,0.5-1.1,0.5c0,0,0,0-0.1,0l0-0.1h-0.1c0,0-0.1,0-0.3,0.1c-0.3,0-0.6-0.3-0.8-0.9l0,0c-0.2-0.3-0.2-0.4-0.2-0.4
				c0-0.3-0.2-0.6-0.5-0.7l-0.1,0c-0.1,0-0.2,0-0.3,0.1l-0.1,0.1l0,0.1c0,0.1-0.1,0.2-0.1,0.4v0.1c0,0.1,0,0.2,0.1,0.4
				c-0.1,0.6-0.1,1-0.1,1.2c0,0.1,0,0.2,0,0.5l0,0.5c0,0.3,0.2,0.5,0.5,0.5h0.2l0,0l0,0h0V128l0.3-0.5l0,0c0.7,0.5,0.7,0.5,0.8,0.5
				h0.2c0.1,0,0.3,0,0.5,0c0.2,0.1,0.3,0.1,0.5,0.1c0,0,0,0,0,0c0.8-0.1,1.2-0.3,1.4-0.5c0.2-0.1,0.4-0.2,0.5-0.3l0.1,0.1v-0.3
				c0,0,0-0.1,0.1-0.3c0.2-0.2,0.3-0.6,0.5-1.1l0-0.1c0-0.1,0-0.4,0-0.7L44,124.6L44,124.6z"/>
			<path d="M48.3,125.4h-0.1l-0.1,0.3v0.1c0,0.3,0.2,0.4,0.3,0.5l0.1,0c0.2,0,0.2-0.2,0.2-0.2l0,0l0,0
				C48.6,125.8,48.6,125.4,48.3,125.4z"/>
			<path d="M49.1,119.6l0.5-0.2c0.2,0,0.3,0,0.4,0c0.1,0,0.3,0,0.4-0.1l0.1-0.1l0-0.1c0-0.3,0-0.5-0.1-0.6c-0.1-0.4-0.6-0.5-0.8-0.5
				l-0.1,0l-0.2,0.1c0,0-0.1,0-0.2-0.1l-0.1,0c0,0-0.2,0-0.5,0c-0.3-0.1-0.5-0.1-0.6-0.2l0,0l0,0c-0.1,0-0.3,0-0.3,0h-0.1
				c-0.5,0-0.9,0-1.2-0.1c-0.6,0-0.9,0.1-1.1,0.3l-0.2,1.1l0.5,0.3v-0.2c0.1,0,0.1,0,0.2,0.1l0.1,0c0.1,0,0.2,0,0.5-0.3
				c0.3,0,0.5,0.1,0.7,0.3l0,0l0.1,0c0.2,0,0.2,0.1,0.2,0.2l0,0.1c-0.1,1-0.2,1.8-0.2,2.5l0,0l0.1,0.3v0c0,0,0,0.1-0.1,0.4l0,0l0,0
				c0,0.1,0.1,0.4,0.2,0.6h0l0,0.2c0,0.7-0.1,0.8-0.1,0.9l0,0l0,0.3v0.3c0,0.1,0,0.2-0.1,0.4c0,0.1,0,0.2,0,0.4l-0.2-0.1l0,0
				c-0.3,0.1-0.6,0.1-0.9,0.2l-0.3-0.1l-0.1,0c-0.1,0-0.4,0-0.4,0.4c-0.2,0.2-0.2,0.4-0.2,0.6v0.1c0,0.3,0.1,0.7,0.9,0.7h0.1l0,0
				c0.2-0.2,0.4-0.2,0.4-0.2c0,0,0.1,0,0.2,0.1l0,0h0.1c0.1,0,0.1,0,0.4-0.2c0.7,0.1,0.9,0.1,1,0.2l0.1,0l0.1-0.1h0.5l0.3,0.2v-0.3
				c0,0,0,0,0,0c0.3,0.1,0.3,0.1,0.3,0.1c0.1,0,0.2,0,0.4-0.1c0.3,0.1,0.4,0.1,0.5,0.1H50v-0.1c0,0,0.1,0,0.1-0.1l0.1-0.1v-0.1
				c0,0,0,0,0,0c0.1-0.1,0.1-0.3,0.1-0.4v-0.2c0-0.3-0.1-0.4-0.4-0.5c-0.4-0.2-0.8-0.4-1.2-0.5l0,0l0,0c-0.2,0.1-0.4,0.1-0.5,0.2
				l0-0.4l0,0c0-0.1,0-0.3-0.1-0.4c0-0.1,0-0.2,0-0.3l0.4,0v-0.2c0,0,0,0,0,0l0-0.1l0-0.1c0-0.1-0.1-0.2-0.1-0.3l0-0.4h-0.1v-0.1
				h-0.2c0,0-0.1,0-0.1,0v-0.1c0.3-0.1,0.3-0.6,0.4-0.9c0-0.1,0-0.2-0.1-0.3l0-0.1l0.2-0.2l0-0.1c-0.1-0.2-0.1-0.3-0.1-0.4l0-0.2
				h-0.2c0,0-0.1,0-0.1,0c0,0,0-0.1,0-0.1l0,0c0-0.1,0-0.3-0.1-0.5c0-0.1,0-0.2,0.1-0.5c0,0,0-0.1,0-0.3c0,0,0-0.2,0-0.5
				c0,0,0-0.1-0.1-0.4l0-0.1c0,0,0.1-0.1,0.3-0.1h0.3C48.7,119.5,48.8,119.5,49.1,119.6L49.1,119.6z"/>
			<path d="M56.7,124.6c-0.1-0.4-0.2-0.7-0.4-0.8c-0.1-0.4-0.3-0.7-0.4-0.8l0,0c-0.3-0.2-0.6-0.4-0.8-0.5c-0.4-0.2-1.1-0.4-1.9-0.5
				c-0.1-0.2-0.3-0.3-0.5-0.4c-0.2-0.3-0.4-0.6-0.4-1c0.1-0.5,0.1-0.7,0.2-0.7c0.6-0.7,0.8-0.8,0.8-0.8c0.2,0,0.5,0.1,0.7,0.2l0.1,0
				l0.1-0.1h0.1l0.1,0.1c0.4,0.2,0.6,0.5,0.6,0.7c0.2,1,0.3,1.4,0.5,1.6l0,0.1h0l0,0.1h0.5l0,0c0.2-0.1,0.3-0.3,0.4-0.6l0,0l0,0
				c-0.1-0.6-0.1-0.9-0.2-1c0.1-0.6,0.2-1.1,0.2-1.5c0-0.2-0.2-0.4-0.5-0.6l0,0h-0.1c-0.1,0-0.2,0.1-0.4,0.4c-0.6-0.2-1-0.4-1.2-0.4
				c-0.1,0-0.2,0-0.3,0c-0.3,0-0.5,0-0.6,0c-0.4,0-0.8,0.3-1.4,0.8l0,0.1c-0.4,0.9-0.6,1.5-0.6,1.8c0,0.5,0.1,0.8,0.2,1h0l0.2,0.3
				c0.5,0.9,0.7,1.1,0.9,1.1c0.1,0.1,0.2,0.1,0.3,0.2l0,0l0.4,0c0,0,0.1,0,0.5,0.3l0.1,0.1l0.5-0.1c0.8,0.4,1,0.7,1,0.9
				c0,0,0,0.1-0.1,0.2l0,0.1l0,0.2c0,0.1,0,0.3-0.1,0.4l0,0.1c-0.1,0.1-0.1,0.3-0.2,0.4l-0.1,0.1c0,0-0.1,0.1-0.1,0.1
				c-0.4,0.3-0.8,0.5-1.1,0.5c0,0,0,0-0.1,0l0-0.1h-0.1c0,0-0.1,0-0.3,0.1c-0.3,0-0.6-0.3-0.8-0.9l0,0c-0.2-0.3-0.2-0.4-0.2-0.4
				c0-0.3-0.2-0.6-0.5-0.7l-0.1,0c-0.1,0-0.2,0-0.3,0.1l-0.1,0.1l0,0.1c0,0.1-0.1,0.2-0.1,0.4v0.1c0,0.1,0,0.2,0.1,0.4
				c-0.1,0.6-0.1,1-0.1,1.2c0,0.1,0,0.2,0,0.5l0,0.5c0,0.3,0.2,0.5,0.5,0.5h0.2l0,0l0,0h0V128l0.3-0.5l0,0c0.7,0.5,0.7,0.5,0.8,0.5
				h0.2c0.1,0,0.3,0,0.5,0c0.2,0.1,0.3,0.1,0.5,0.1c0,0,0,0,0,0c0.8-0.1,1.2-0.3,1.4-0.5c0.2-0.1,0.4-0.2,0.5-0.3l0.1,0.1v-0.3
				c0,0,0-0.1,0.1-0.3c0.2-0.2,0.3-0.6,0.5-1.1l0-0.1c0-0.1,0-0.4,0-0.7L56.7,124.6L56.7,124.6z"/>
			<path d="M66.3,124.6c-0.1-0.4-0.2-0.7-0.4-0.8c-0.1-0.4-0.3-0.7-0.4-0.8l0,0c-0.3-0.2-0.6-0.4-0.8-0.5c-0.4-0.2-1.1-0.4-1.9-0.5
				c-0.1-0.2-0.3-0.3-0.5-0.4c-0.2-0.3-0.4-0.6-0.4-1c0.1-0.5,0.1-0.7,0.2-0.7C62.8,119,63,119,63,119c0.2,0,0.5,0.1,0.7,0.2l0.1,0
				l0.1-0.1h0.1l0.1,0.1c0.4,0.2,0.6,0.5,0.6,0.7c0.2,1,0.3,1.4,0.5,1.6l0,0.1h0l0,0.1h0.5l0,0c0.2-0.1,0.3-0.3,0.4-0.6l0,0l0,0
				c-0.1-0.6-0.1-0.9-0.2-1c0.1-0.6,0.2-1.1,0.2-1.5c0-0.2-0.2-0.4-0.5-0.6l0,0h-0.1c-0.1,0-0.2,0.1-0.4,0.4c-0.6-0.2-1-0.4-1.2-0.4
				c-0.1,0-0.2,0-0.3,0c-0.3,0-0.5,0-0.6,0c-0.4,0-0.8,0.3-1.4,0.8l0,0.1c-0.4,0.9-0.6,1.5-0.6,1.8c0,0.5,0.1,0.8,0.2,1h0l0.2,0.3
				c0.5,0.9,0.7,1.1,0.9,1.1c0.1,0.1,0.2,0.1,0.3,0.2l0,0l0.4,0c0,0,0.1,0,0.5,0.3l0.1,0.1l0.5-0.1c0.8,0.4,1,0.7,1,0.9
				c0,0,0,0.1-0.1,0.2l0,0.1l0,0.2c0,0.1,0,0.3-0.1,0.4l0,0.1c-0.1,0.1-0.1,0.3-0.2,0.4l-0.1,0.1c0,0-0.1,0.1-0.1,0.1
				c-0.4,0.3-0.8,0.5-1.1,0.5c0,0,0,0-0.1,0l0-0.1h-0.1c0,0-0.1,0-0.3,0.1c-0.3,0-0.6-0.3-0.8-0.9l0,0c-0.2-0.3-0.2-0.4-0.2-0.4
				c0-0.3-0.2-0.6-0.5-0.7l-0.1,0c-0.1,0-0.2,0-0.3,0.1l-0.1,0.1l0,0.1c0,0.1-0.1,0.2-0.1,0.4v0.1c0,0.1,0,0.2,0.1,0.4
				c-0.1,0.6-0.1,1-0.1,1.2c0,0.1,0,0.2,0,0.5l0,0.5c0,0.3,0.2,0.5,0.5,0.5h0.2l0,0l0,0h0V128l0.3-0.5l0,0c0.7,0.5,0.7,0.5,0.8,0.5
				h0.2c0.1,0,0.3,0,0.5,0c0.2,0.1,0.3,0.1,0.5,0.1c0,0,0,0,0,0c0.8-0.1,1.2-0.3,1.4-0.5c0.2-0.1,0.4-0.2,0.5-0.3l0.1,0.1v-0.3
				c0,0,0-0.1,0.1-0.3c0.2-0.2,0.3-0.6,0.5-1.1l0-0.1c0-0.1,0-0.4,0-0.7L66.3,124.6L66.3,124.6z"/>
			<path d="M73.1,121L73.1,121c0-0.1,0-0.2-0.1-0.2c0-0.2-0.1-0.3-0.1-0.4h0l-0.1-0.3c0,0-0.1-0.1-0.1-0.2c-0.1-0.2-0.1-0.3-0.2-0.3
				l0-0.1c-0.2-0.4-0.3-0.7-0.5-0.7c-0.3-0.3-0.5-0.5-0.6-0.5c-0.1-0.2-0.4-0.3-1-0.4l-0.1,0l-0.5,0.2l-0.2,0
				c-0.4,0.1-1,0.2-1.1,0.5c-0.2,0.1-0.3,0.1-0.4,0.2l-0.1,0.1l0,0.1c0,0,0,0.1,0,0.1c-0.4,0.6-0.5,0.8-0.5,0.8
				c-0.1,0.1-0.2,0.3-0.2,0.3l0,0l0,0.2c-0.2,0.5-0.3,0.7-0.3,0.8l0,0v0.7c0,0.1,0,0.2-0.1,0.3l0,0l0,0c0,0.3,0,0.4,0,0.4
				C67,122.9,67,123,67,123v0.2l0.1,0.3c0,0.4,0,0.7,0,1v0.2c0,0.1,0,0.2,0.1,0.8c0,0.1,0,0.4,0.5,1.2c0,0.2,0.1,0.5,0.4,0.7
				l0.5,0.6l0.1,0c0.3,0,0.4,0.1,0.4,0.1l0.1,0.1h0.3c0.1,0.1,0.2,0.1,0.3,0.1h0.4c0.1,0.1,0.1,0.1,0.2,0.1l0,0c0,0,0,0,0,0v0.3
				l0.2-0.2h0.1v-0.2c0.2-0.2,0.3-0.3,0.5-0.4h0.2c0.2,0,0.5-0.2,0.7-0.6c0.3-0.3,0.4-0.5,0.5-0.7c0.2-0.2,0.3-0.6,0.3-1.1l0.2-0.5
				l-0.1-0.4c0.1-0.5,0.1-0.6,0.1-0.6c0-0.1,0-0.2,0-0.4l0-0.3C73.1,121.9,73.1,121.2,73.1,121z M72,123.8c0,0.1,0,0.3,0,0.5
				c0,0,0,0,0,0.1l0,0c0,0,0,0.1-0.2,0.3l0,0v0.4c0,0,0,0.1-0.1,0.3l0,0.1c0,0,0,0,0,0l-0.1,0.1l0,0.1c-0.1,0.4-0.3,0.6-0.5,0.8l0,0
				c-0.2,0.2-0.4,0.4-0.8,0.6l-0.7-0.2c-0.2-0.3-0.4-0.4-0.5-0.5c-0.2-0.3-0.4-0.5-0.5-0.5c-0.1-0.3-0.2-0.5-0.3-0.6
				c0-0.4-0.1-0.6-0.2-0.7c-0.1-0.4-0.1-0.8-0.3-1.1c0.1-0.3,0.1-0.4,0.1-0.4l-0.1-0.3l0-0.4l0-0.3c0,0,0-0.1,0.1-0.2l0,0l0-0.3
				c0.2-1,0.4-1.1,0.4-1.1h0.1l0-0.1c0.4-0.8,0.6-0.9,0.6-0.9l0.1,0l0-0.1c0.2-0.3,0.4-0.4,0.6-0.4h0.4c0,0,0,0,0,0v0.1l0.1,0
				c0.4,0.1,0.7,0.2,0.8,0.3l0.1,0c0.1,0,0.2,0,0.4,0.6l0,0.1h0c0.2,0.4,0.2,0.5,0.2,0.5l0,0.2l0,0.4l0,0.2h0.1c0,0,0,0.1,0,0.1
				h-0.1c-0.1,0-0.2,0.1-0.2,0.2l0,0l0,0.3h0.2c0.1,0,0.1-0.1,0.2-0.1c0.1,0.3,0.1,0.6,0.1,0.9C72.1,123.5,72,123.7,72,123.8z
				 M72,122C71.9,122,71.9,122,72,122L72,122L72,122z M71.8,121.8L71.8,121.8L71.8,121.8C71.8,121.9,71.8,121.8,71.8,121.8z"/>
			<path d="M79.3,124.3c0,0-0.1,0-0.5,0.1l-0.1,0l0,0.1c-0.1,0.2-0.2,0.3-0.2,0.4h-0.1v0.2c0,0.5-0.1,0.7-0.2,0.7l-0.1,0.1v0.1
				c0,0.4-0.3,0.7-0.8,1.1c0,0,0,0,0,0c0-0.3-0.2-0.6-0.9-0.6h-0.1l0,0c-0.1,0.1-0.2,0.1-0.3,0.3c-0.1-0.3-0.3-0.5-0.4-0.6
				c-0.2-0.1-0.2-0.3-0.2-0.6l0-0.1c-0.2-0.5-0.4-1.2-0.4-1.9l0-0.3c-0.1-0.5-0.1-0.6-0.1-0.6c0-0.3,0.1-0.5,0.1-0.6l0.1,0.1v-0.3
				c0-0.4,0.1-0.6,0.1-0.7l0,0V121c0-0.2,0.1-0.5,0.3-0.7l0.1-0.1v-0.1c0-0.1,0-0.2,0.3-0.3l0.1,0l0-0.1c0.1-0.1,0.1-0.2,0.2-0.2
				c0,0,0.1,0,0.1,0.1l0.1,0.1h0.2l0,0c0.1-0.1,0.2-0.2,0.3-0.4c0.3,0.1,0.5,0.1,0.5,0.1c0,0.2,0.1,0.5,0.3,0.5
				c0.1,0.1,0.2,0.1,0.2,0.4v0l0,0c0.3,0.4,0.4,0.8,0.4,1.1c0,0.2,0,0.2,0,0.3v0.1l0,0.1c0.2,0.7,0.5,1,0.7,1c0.1,0,0.3,0,0.3-0.1
				c0.3-0.1,0.4-0.7,0.4-1.4l0-0.1c-0.2-0.7-0.3-0.9-0.3-0.9v0c0,0,0-0.1,0-0.1h0.1l0-0.2c0-0.4,0.1-0.8,0.1-1.2l0,0l0,0
				c-0.1-0.4-0.4-1-0.8-1h-0.1c-0.1,0-0.2,0.1-0.4,0.4c-0.1,0.2-0.2,0.4-0.2,0.4c0,0-0.1-0.1-0.1-0.1l0.1-0.2l0-0.1v-0.1
				c0-0.1-0.1-0.2-0.2-0.3c0,0-0.1,0-0.3,0.1h0v-0.1l-0.2,0c-0.3,0-0.5-0.1-0.6-0.3l-0.1-0.1l-0.1,0.1c-0.1,0-0.2,0.1-0.3,0.2
				l-0.2,0l-0.1,0c-0.4,0.2-0.7,0.4-0.9,0.4l-0.1,0l0,0c-0.3,0.4-0.4,0.5-0.4,0.6h-0.1l-0.1,0.1c-0.1,0.3-0.2,0.4-0.2,0.4h-0.1v0.2
				c0,0.3-0.1,0.5-0.2,0.7l0,0l0,0.1c0,0.5-0.1,1-0.2,1.7v0.2c0,0.2,0,0.5-0.1,0.7l0,0.1c0,0.1,0,0.2,0.1,0.4l0,0.2l0.1,0.5
				c0,0.2,0,0.3,0,0.6l0,0l0,0c0.1,0.4,0.1,0.5,0.1,0.5c0,0.4,0.2,0.9,0.8,1.5c0,0.2,0.2,0.4,0.5,0.7l0,0c0.6,0.3,0.8,0.4,0.8,0.4
				l0.1,0.1l0.3-0.1l0.1,0c0,0,0.1,0,0.3,0.1l0.1,0l0.1,0c0.4-0.1,0.6-0.2,0.8-0.3l0.8-0.2l0-0.1c0.1-0.1,0.1-0.2,0.1-0.2
				c0,0,0.1,0,0.2,0.1l0.1,0c0.2,0,0.3-0.3,0.3-0.6l0.3-0.3v-0.1c0,0,0-0.1,0-0.1c0,0,0.1-0.1,0.2-0.4l0,0l0-0.1
				c0-0.7,0.1-0.9,0.1-0.9l0-0.1l0-0.1C79.8,124.7,79.7,124.3,79.3,124.3z"/>
			<path d="M84.2,125.4h-0.1l-0.1,0.3v0.1c0,0.3,0.2,0.4,0.3,0.5l0.1,0c0.2,0,0.2-0.2,0.2-0.2l0,0l0,0
				C84.6,125.8,84.5,125.4,84.2,125.4z"/>
			<path d="M85.9,126.8c-0.4-0.2-0.8-0.4-1.2-0.5l0,0l0,0c-0.2,0.1-0.4,0.1-0.5,0.2l0-0.4l0,0c0-0.1,0-0.3-0.1-0.4
				c0-0.1,0-0.2,0-0.3l0.4,0v-0.2c0,0,0,0,0,0l0-0.1l0-0.1c0-0.1-0.1-0.2-0.1-0.3l0-0.4h-0.1v-0.1h-0.2c0,0-0.1,0-0.1,0v-0.1
				c0.3-0.1,0.3-0.6,0.4-0.9c0-0.1,0-0.2-0.1-0.3l0-0.1l0.2-0.2l0-0.1c-0.1-0.2-0.1-0.3-0.1-0.4l0-0.2H84c0,0-0.1,0-0.1,0
				c0,0,0-0.1,0-0.1l0,0c0-0.1,0-0.3-0.1-0.5c0-0.1,0-0.2,0.1-0.5c0,0,0-0.1,0-0.3c0,0,0-0.2,0-0.5c0,0,0-0.1-0.1-0.4l0-0.1
				c0,0,0.1-0.1,0.3-0.1h0.3c0.1,0,0.3,0,0.5,0l0,0l0.5-0.2c0.2,0,0.3,0,0.4,0c0.1,0,0.3,0,0.4-0.1l0.1-0.1l0-0.1
				c0-0.3,0-0.5-0.1-0.6c-0.1-0.4-0.6-0.5-0.8-0.5l-0.1,0l-0.2,0.1c0,0-0.1,0-0.2-0.1l-0.1,0c0,0-0.2,0-0.5,0
				c-0.3-0.1-0.5-0.1-0.6-0.2l0,0l0,0c-0.1,0-0.3,0-0.3,0h-0.1c-0.5,0-0.9,0-1.2-0.1c-0.6,0-0.9,0.1-1.1,0.3l-0.2,1.1l0.5,0.3v-0.2
				c0.1,0,0.1,0,0.2,0.1l0.1,0c0.1,0,0.2,0,0.5-0.3c0.3,0,0.5,0.1,0.7,0.3l0,0l0.1,0c0.2,0,0.2,0.1,0.2,0.2l0,0.1
				c-0.1,1-0.2,1.8-0.2,2.5l0,0l0.1,0.3v0c0,0,0,0.1-0.1,0.4l0,0l0,0c0,0.1,0.1,0.4,0.2,0.6h0l0,0.2c0,0.7-0.1,0.8-0.1,0.9l0,0
				l0,0.3v0.3c0,0.1,0,0.2-0.1,0.4c0,0.1,0,0.2,0,0.4l-0.2-0.1l0,0c-0.3,0.1-0.6,0.1-0.9,0.2l-0.3-0.1l-0.1,0c-0.1,0-0.4,0-0.4,0.4
				c-0.2,0.2-0.2,0.4-0.2,0.6v0.1c0,0.3,0.1,0.7,0.9,0.7h0.1l0,0c0.2-0.2,0.4-0.2,0.4-0.2c0,0,0.1,0,0.2,0.1l0,0h0.1
				c0.1,0,0.1,0,0.4-0.2c0.7,0.1,0.9,0.1,1,0.2l0.1,0l0.1-0.1h0.5l0.3,0.2v-0.3c0,0,0,0,0,0c0.3,0.1,0.3,0.1,0.3,0.1
				c0.1,0,0.2,0,0.4-0.1c0.3,0.1,0.4,0.1,0.5,0.1H86v-0.1c0,0,0.1,0,0.1-0.1l0.1-0.1v-0.1c0,0,0,0,0,0c0.1-0.1,0.1-0.3,0.1-0.4v-0.2
				C86.3,127.1,86.1,126.9,85.9,126.8z"/>
			<path d="M92.6,126.4L92.6,126.4l-0.2,0l-0.2,0v0.1c-0.1,0-0.2,0-0.3,0c-0.1-0.7-0.2-0.9-0.2-1c-0.1-0.7-0.2-1.1-0.3-1.3l0-0.2
				c0-0.2-0.1-0.6-0.3-1.1c0-0.6-0.1-1-0.3-1.3c0-0.5-0.1-0.8-0.2-0.9c-0.1-0.7-0.2-1-0.3-1.2l0-0.1c0-0.3-0.1-0.5-0.2-0.6l-0.3-0.5
				h0c0-0.1-0.1-0.2-0.2-0.3l-0.1-0.1h-0.1l-0.1,0c-0.2,0.1-0.4,0.2-0.5,0.3l-0.1,0.1v0.4c0,0.1,0,0.1,0,0.1l-0.1,0v0.1
				c0,0.3-0.1,0.7-0.2,1.1l0,0l0,0c0,0.1,0,0.2,0,0.2c0,0.1,0,0.1,0,0.2h-0.1l0,0.2c0,0.4-0.2,1.1-0.3,2c0,0.4-0.2,1-0.3,1.8
				c0,0,0,0.1-0.1,0.5c0,0,0,0.1-0.1,0.4l0,0l0,0.2c0,0,0,0,0,0h0l0,0.1c-0.1,0.3-0.1,0.5-0.2,0.7c-0.7,0-1.1,0.2-1.1,0.7l0,0.1
				c0.2,0.5,0.3,0.6,0.3,0.7l0.1,0.1l0.1,0c0.4,0,0.7,0,1,0H88c0,0,0,0,0.1,0l0.1,0.1l0.1,0c0.3-0.1,0.4-0.1,0.4-0.1l0.2,0l0.1,0
				c0.2-0.1,0.5-0.2,0.5-0.5c0-0.2-0.1-0.8-0.4-0.8h0c-0.3-0.1-0.4-0.2-0.4-0.3c0,0,0-0.1,0-0.1l0,0v-0.2c0-0.3,0.1-0.6,0.2-0.9
				c0.3,0,0.7,0,1,0l0.2,0v0l0.2,0c0.4,0,0.5,0.1,0.6,0.4l0,0.4c0,0.2,0,0.3,0,0.4l-0.3,0.1c-0.3,0-0.5,0.2-0.5,0.5v0.3
				c0,0.2,0.1,0.3,0.2,0.5l0,0c0.1,0.1,0.2,0.1,0.3,0.2c0.3,0,0.7,0,1.3,0c0,0,0.1,0,0.2,0.1l0.1,0c0.4,0,0.8-0.2,0.9-0.7l0-0.1
				C93.1,126.8,92.9,126.6,92.6,126.4z M90.3,124c-0.1,0-0.2,0.1-0.6,0.1c-0.2,0-0.2,0-0.2,0c0,0,0,0,0,0l0,0h-0.1
				c-0.2,0-0.4-0.1-0.4-0.3c0.1-0.3,0.2-0.5,0.2-0.8c0.1-0.2,0.2-0.5,0.3-1.4c0.1-0.6,0.2-0.8,0.2-1c0.1,0.4,0.2,0.7,0.3,1
				c0.1,0.6,0.1,0.9,0.2,1c0,0.6,0.1,1,0.2,1.3L90.3,124z M90.9,126.4C90.9,126.4,90.9,126.4,90.9,126.4
				C90.9,126.4,90.9,126.4,90.9,126.4L90.9,126.4z"/>
			<path d="M100.2,126.9c0-0.3-0.1-0.6-0.1-0.8l0.1-0.8l0-0.1c-0.1-0.6-0.2-1.1-0.3-1.5l0-0.3l0,0c-0.1-0.2-0.2-0.5-0.5-0.5h-0.1
				l-0.1,0c-0.2,0.2-0.3,0.3-0.3,0.5l0,0.4l-0.2,0.7l0.1,0.4c0,0,0,0,0,0.1l0,0.1l0,0.1c0,0,0,0.1,0,0.1c0,0,0,0.3-0.1,0.7
				c0,0.2,0,0.4-0.4,0.5h-0.1c0,0-0.1,0-0.3-0.1l-0.3-0.2v0.1c0,0,0,0-0.1,0l-0.1,0c-0.1,0.1-0.2,0.1-0.3,0.2l0,0l-0.1,0.1
				c0,0-0.1,0.1-0.1,0.1l-0.1,0.1c0,0,0,0-0.1,0.1h-0.3c-0.1,0-0.3,0-0.3-0.1c0-0.3-0.1-0.5-0.1-0.6l0.1-0.2l-0.1-0.7l0-0.5
				c0-0.2-0.1-0.8-0.1-1c0,0,0-0.1,0.1-0.4c0-0.5,0-1.1,0.1-1.9l0,0l0,0c-0.1-0.2-0.1-0.3-0.1-0.3c0.1-0.5,0.1-0.5,0.1-0.5
				c0-0.3,0-0.5-0.1-0.7c0.1-0.4,0.1-0.6,0.1-0.8c0,0,0.1-0.1,0.6-0.1c0.2,0.1,0.3,0.1,0.3,0.1l0.5-0.2c0,0,0.1,0,0.1,0h0.1
				c0.2,0,0.3-0.1,0.4-0.3l0-0.1l0-0.1c-0.1-0.2-0.4-0.5-0.8-0.7l-0.1,0l-0.1,0c-0.2,0.1-0.3,0.1-0.3,0.1h-0.4c-0.2,0-0.3,0-0.3-0.1
				l-0.1,0l-0.1,0c-0.1,0-0.3,0-0.3,0h-0.1l-0.1-0.1l-0.3,0.1c0,0-0.1,0-0.1,0l-0.1,0c-0.3,0-0.7,0-1.1,0c-0.1,0-0.2,0-0.3,0
				c-0.3,0-0.5,0.4-0.5,0.5l0,0.1l0,0c-0.1,0.1-0.1,0.3-0.1,0.4c0,0.1,0,0.3,0.3,0.4l0,0l0.3,0l0.3,0c0.1,0,0.1,0.1,0.3,0.1h0.1
				l0.1-0.1c0.1-0.1,0.1-0.2,0.1-0.2h0.1c0.1,0,0.2,0,0.3,0.3c0,0,0,0.1,0,0.1l0,0.1l0,0c0.1,0.3,0.1,0.4,0.1,0.4c0,0.1,0,0.3,0,0.6
				l0,0l0,0c0,0.1,0.1,0.2,0.1,0.3v0.3c0,0.1,0,0.3-0.1,1c0.1,1.2,0.1,1.6,0.1,1.6c0,0.2,0,0.4,0,0.7l0,0.5l-0.1,0.3
				c0,0.2,0,0.5,0.1,0.8c0,0.3,0,0.4-0.1,0.5c0,0-0.1,0-0.2-0.1l-0.1,0l-0.1,0c-0.3,0.1-0.5,0.1-0.7,0.2l-0.2-0.2h-0.1
				c-0.3,0-0.6,0.3-0.7,0.9l0,0l0,0c0,0.2,0.1,0.5,0.3,0.5l0,0c0.1,0,0.2,0,0.3,0h0.7c0.4,0,0.8-0.1,1.2-0.2h0
				c0.1,0.1,0.2,0.2,0.3,0.2l0.1,0l0.3-0.1c0.1,0,0.3,0.1,0.4,0.1l0.1,0l0.1,0c0.1,0,0.3-0.1,0.6-0.2l0,0.1h0.3l0.1,0
				c0.2-0.1,0.3-0.1,0.4-0.2c0.2,0.1,0.6,0.2,0.9,0.2l0.1,0l0.1-0.1c0.6,0,0.7-0.3,0.7-0.5c0,0,0-0.1,0-0.3L100.2,126.9L100.2,126.9
				z"/>
		</g>
		<g>
			<polygon points="97.6,7.2 99.8,8.3 88.1,16.7 93.1,20.6 77.5,38.4 95.4,52.6 72.2,100.7 100.3,100.7 100.3,5.4 			"/>
		</g>
		<g>
			<path d="M91.4,7.8l6.4-3.4H4.1v96.2h23.4L71,58.5L54,44.2l30.9-22l-3.8-4.2l13.7-8.6L91.4,7.8z M35.9,51.9l-6.6-4.8l-6.6,4.8
				l2.5-7.8l-6.6-4.8h8.2l2.5-7.8l2.5,7.8h8.2l-6.6,4.8L35.9,51.9z"/>
		</g>
	</g>
</g>
</svg>
