<?xml version="1.0" encoding="utf-8"?>
<!-- Generator: Adobe Illustrator 23.0.1, SVG Export Plug-In . SVG Version: 6.00 Build 0)  -->
<svg version="1.0" id="Capa_1" xmlns="http://www.w3.org/2000/svg" xmlns:xlink="http://www.w3.org/1999/xlink" x="0px" y="0px"
	 viewBox="0 0 112 101.5" style="enable-background:new 0 0 112 101.5;" xml:space="preserve">
<style type="text/css">
	.st0{fill:#CA3E47;}
	.st1{fill:#3D69AF;}
	.st2{fill:#FFFFFF;}
	.st3{fill:none;}
</style>
<g>
	<rect x="45.8" y="-0.9" class="st0" width="67.4" height="103.8"/>
	<rect x="-1.4" y="-1.4" class="st1" width="47.2" height="105.1"/>
	<g>
		<g>
			<g>
				<path class="st2" d="M24.3,13.5c0.1-0.1,0.3-0.3,0.1-0.6c-0.1-0.2-0.3-0.2-0.2-0.2c1.1-0.3,1.8-1.9,1.7-2.6
					c0.6,0.5,1.9,0.7,2.9-0.1c0.6-0.6,0.9-2.2-0.1-2.9c-0.5-0.4-1.5-0.4-2.1,0c-0.2-0.3-0.5-0.5-0.9-0.5c0-0.1,0-0.9-0.4-1.4
					c-0.6-0.6-2.2-0.7-2.8,0c-1.2-0.3-2.7,0.2-2.6,2.1C19.1,7,18.7,7,18.2,7c-0.4,0-0.9,0.4-1.1,0.6C17,7.8,16.9,7.9,16.9,8
					c-0.1,0.3-0.2,0.6-0.2,1c0.1,0.6,0.4,1.2,0.8,1.4c0.6,0.4,1.5,0.3,1.8,0.3c0.2,0,0.5-0.1,0.7-0.4c0.1-0.1,0.1-0.2,0.2-0.2
					c0,0.2-0.1,1,0.9,1.4c0,0,0,0.1,0,0.1c0.3,1.2,1.1,1,1.1,1.1c-0.4,0.2-0.2,0.5-0.1,0.7c0.5-0.2,0.9-0.2,1.1-0.2
					S23.8,13.4,24.3,13.5z"/>
				<g>
					<polygon class="st3" points="23.1,14.7 22.4,17.1 19.8,17.1 19.8,17.1 21.9,18.6 21.1,21 23.1,19.5 25.1,21 24.3,18.6 
						26.4,17.1 26.4,17.1 23.8,17.1 					"/>
					<path class="st2" d="M27,17.1c0-1.2,0.8-2.1,0.8-2.1c0.1-0.1,0.1-0.2,0.1-0.3c0-0.1-0.1-0.2-0.1-0.2c-0.2-0.2-0.7-0.5-0.7-0.5
						l0,0h0c-0.1,0-0.1,0-0.2,0.1c-0.1,0.1-0.4,0.3-0.9,0.3c-0.1,0-0.2,0-0.3,0c-0.2,0-0.7-0.2-0.7-0.2c-0.1-0.1-0.3-0.1-0.4-0.2
						l0,0c-0.7-0.3-1.2-0.3-1.4-0.3c-0.2,0-0.7,0-1.4,0.3l0,0c0,0-0.1,0-0.2,0.1l-0.4,0.2c-0.1,0.1-0.3,0.1-0.4,0.1
						c-0.1,0-0.2,0-0.3,0c-0.5,0-0.7-0.2-0.9-0.3c-0.1-0.1-0.1-0.1-0.2-0.1l0,0l0,0c0,0-0.5,0.3-0.8,0.5c0,0-0.1,0.1-0.1,0.2
						c0,0.1,0,0.2,0.1,0.3c0,0,0.8,1,0.8,2.2c0,0.1,0.1,0.9-0.5,1.9c0,0.1-0.7,1.3,0,2.4c0,0,0.6,1,2.2,1c0.1,0,1.3,0,1.7,0.8
						c0,0,0.2,0.3,0.3,0.5l0.1,0.2l0.1-0.2c0.1-0.1,0.3-0.5,0.3-0.5c0.4-0.8,1.6-0.8,1.7-0.8c1.6,0,2.2-1,2.2-1c0.8-1.1,0-2.4,0-2.4
						C27,18,27,17.3,27,17.1z M26.4,17.1l-2.1,1.5l0.8,2.4l-2-1.5l-2,1.5l0.8-2.4l-2.1-1.5l0,0h2.6l0.7-2.4l0.7,2.4L26.4,17.1
						L26.4,17.1z"/>
					<g>
						<path class="st3" d="M16.1,28.7c1.1,1.2,2.8,0.5,2.8,0.5c0.3,0,0.4-0.8,0.5-1.5c-1-0.1-1.9-0.3-2.9-0.5
							C16.2,27.9,16.1,28.7,16.1,28.7z"/>
						<path class="st3" d="M15.8,23.7c0,0-0.1-0.1-0.1-0.1c-0.1,0-0.2,0.1-0.4,0.1c-0.1,0-1.3-0.9-1.4-1c-0.3-0.2-0.7-0.4-0.8-0.7
							c-0.1-0.2,0-0.4-0.1-0.6c0-0.2-0.2-0.5-0.5-0.6c-0.1,0.4-0.6,1.7-2.1,2c-0.2,0.8,0.1,2.5,0.3,2.7c0.1,0,0.3,0.1,0.4,0.2
							c0-0.3,0.1-0.5,0.1-0.5c0.4-0.9,1.5-0.6,1.5-0.6c0.4,0.1,0.4,0.4,0.4,0.4c0.1,0.7-0.5,0.8-0.5,0.8c-0.4,0-0.4-0.3-0.4-0.3
							c-0.1-0.3,0.4-0.3,0.4-0.3c-0.4-0.7-1.7,0.4-0.8,1.5c0.1,0.1,0.2,0,0.2,0c2.5-1.2,2.9-1.7,2.9-1.7c0.5-0.5,0.9-0.8,1.2-1
							C15.9,23.8,15.8,23.7,15.8,23.7z"/>
						<path class="st3" d="M27.5,13.9c0,0,0.1,0.1,0.1,0.1C27.6,13.9,27.5,13.9,27.5,13.9z"/>
						<path class="st3" d="M28.3,14.5c-0.1-0.1-0.2-0.1-0.3-0.2C28.1,14.4,28.2,14.4,28.3,14.5L28.3,14.5z"/>
						<path class="st3" d="M27.7,14.1c0.1,0.1,0.2,0.1,0.2,0.2C27.9,14.2,27.8,14.1,27.7,14.1z"/>
						<path class="st3" d="M15.6,28.2c0.1-0.1,0.2-0.5,0.2-0.5c0.1-0.2,0.1-0.4,0.2-0.6c-0.3-0.1-0.5-0.2-0.8-0.3
							C15.3,27.6,15.6,28.2,15.6,28.2z"/>
						<path class="st3" d="M27.3,27.7c0.1,0.6,0.2,1.4,0.5,1.5c0,0,1.7,0.6,2.8-0.5c0,0-0.1-0.7-0.4-1.5
							C29.2,27.4,28.3,27.6,27.3,27.7z"/>
						<path class="st3" d="M30.8,27.7c0,0,0.1,0.4,0.2,0.5c0,0,0.3-0.6,0.4-1.4c-0.3,0.1-0.5,0.2-0.8,0.3
							C30.7,27.3,30.8,27.5,30.8,27.7z"/>
						<path class="st3" d="M18.6,25.4c-0.5,0-0.9,0.2-1.3,0.5c0.6,0.1,1.3,0.3,2.1,0.4C19.3,25.4,18.6,25.4,18.6,25.4z"/>
						<path class="st3" d="M29.8,25.9c0.5-0.1,0.9-0.2,1.3-0.4c-0.1-0.1-0.1-0.3-0.3-0.4c0,0-1.4-1.7-3.9-0.7
							c-0.1,0,0.1,0.4,0.8,0.6C27.8,24.9,28.9,25,29.8,25.9z"/>
						<path class="st3" d="M28.1,25.4c0,0-0.7,0-0.9,0.9c0.8-0.1,1.5-0.2,2.2-0.4C29.1,25.7,28.6,25.5,28.1,25.4z"/>
						<path class="st3" d="M21.1,24.9c-0.2-0.2-0.4-0.3-0.4-0.3c-0.4,0-0.4,0.8-0.5,1.8c0.8,0.1,1.6,0.1,2.5,0.2
							C22.2,25.8,21.4,25.3,21.1,24.9z"/>
						<path class="st3" d="M15.8,25.1c-0.1,0.1-0.2,0.3-0.3,0.4c0.3,0.1,0.8,0.2,1.3,0.4c0.9-0.9,2-0.9,2.1-0.9
							c0.7-0.2,0.9-0.6,0.8-0.6C17.2,23.4,15.8,25.1,15.8,25.1z"/>
						<path class="st3" d="M26,24.6c0,0-0.3,0-0.4,0.3c-0.3,0.4-1.2,1-1.6,1.8c0.9,0,1.8-0.1,2.5-0.2C26.5,25.4,26.4,24.6,26,24.6z"
							/>
						<path class="st2" d="M41,27.1c-0.3-0.3-1-0.2-1-0.2c0.4-1.1-0.7-1.4-0.7-1.4c-0.4-0.1-0.6,0-0.8,0.1c0,0,0,0,0,0c0,0,0,0,0,0
							c0,0-0.1,0-0.1,0.1c-0.1,0.1-0.1,0.2-0.1,0.4c0,0.3,0.2,0.5,0.5,0.5c0.1,0,0.2,0,0.3-0.1c0.1-0.1,0.2-0.2,0.2-0.3
							c0.1,0.1,0.2,0.2,0.2,0.2c0.3,0.9-0.8,1.3-0.8,1.3c-2.4,0.7-3.8-0.5-3.8-0.5l0.4-0.2c0.1-0.1,0.3-0.1,0.4-0.1c0,0,0,0,0,0.1
							c0,0.3,0.2,0.5,0.5,0.5c0.3,0,0.5-0.2,0.5-0.5c0-0.2-0.1-0.3-0.1-0.3c-0.3-0.4-1.2-0.1-1.2-0.1c0.3-0.8,0-1.3,0-1.3
							c-0.4-0.9-1.5-0.6-1.5-0.6c-0.4,0.1-0.4,0.4-0.4,0.4c-0.1,0.7,0.5,0.8,0.5,0.8c0.4,0,0.4-0.3,0.4-0.3c0.1-0.3-0.4-0.3-0.4-0.3
							c0.4-0.7,1.6,0.4,0.8,1.5c-0.1,0.1-0.2,0-0.2,0c-1.5-0.7-2.2-1.2-2.5-1.5c0-0.4-0.4-0.6-0.3-0.7c0.1,0,0.3,0.1,0.4-0.1
							c0-0.1,0.1-0.7,0.2-1.1c1.3,0.6,2.4,0.4,2.6,0.3c0.1,0,0.2-0.1,0.2-0.3c0-0.5-1.3-3.4-1.3-4.4c0.6,0.3,1-0.6,1.1-0.9
							c0.8,0.4,1.1,7.9,1.7,8.2c0.3,0.1,0.4-0.4,0.5-0.5c1-3.4,1-6.6,1-7.7c-0.1-1.7-0.2-3.3-0.7-4.7c-0.3-0.9-0.7-2.6-1.9-2.9
							c-0.5-0.1-0.9,0.4-0.9,0.8c0,0.4,0.3,0.6,0.2,1c-0.1,0.3-0.3,0.5-0.4,0.8c-0.1,0.3,0.2,0.4,0.1,0.7c-0.4-0.1-0.5,0.3-1.1,0.1
							c0.4-0.2,0.4-1.2-0.1-1.4c-0.1,0-0.1,0-0.2-0.1c0,0,0.1-0.2,0.2-0.3c0.3-0.5,0.3-1,0.1-1.4c0.2,0,0.4-0.3,0.4-0.6l0,0
							c0,0,0,0,0,0v0c0-0.1,0-0.3,0.1-0.5c0-0.1,0-0.2-0.1-0.2c-0.1,0-0.2,0-0.2,0.1c-0.1,0.2-0.4,0.1-0.3-0.1c0-0.1,0-0.2-0.1-0.2
							c-0.1,0-0.1,0-0.2,0.1c-0.1,0.2-0.4,0.1-0.3-0.1c0-0.1,0-0.2-0.1-0.2c-0.1,0-0.1,0-0.2,0.1c-0.1,0.2-0.4,0.1-0.3-0.1
							c0-0.1,0-0.2-0.1-0.2c-0.1,0-0.1,0-0.2,0.1c-0.1,0.2-0.2,0.4-0.3,0.5c-0.3,0-0.2,0.3-0.2,0.5C31.3,9.3,31,9.7,31,10h-0.1
							c-0.4,0-0.8,0.2-0.7,0.6c0,0.2,0.3,0.5,0.3,0.5c0,0,0-0.2,0.2-0.2c0.2,0,0.5,0.1,0.5,0.3c0,0.2-0.1,0.7,0.5,0.8
							c0,0,0,0.1,0,0.2c-0.2,0-0.3,0-0.5,0c-0.4,0.1-1,0.3-1.1,0.7c0,0.1,0,0.2,0,0.3c0,0.1,0.1,0.2,0.1,0.3c0,0-0.1,0.2-0.1,0.2
							c-0.2,0.2-0.5,0.3-0.8,0.4c-0.3,0-0.6-0.2-0.7-0.3c-0.4-0.5,0.1-1.5,0.1-1.8c0-0.9-1.2-0.4-1.7-0.1c-0.6,0.3-1,0.8-1.4,1.2
							c-0.2,0.3-0.4,0.6-0.6,0.8c0,0-0.1,0.1-0.1,0.1c0.2,0.1,0.7,0.3,1,0.3c0,0,0.7,0.1,1.1-0.3c0,0,0.1-0.1,0.2-0.1
							c0.1,0,0.1,0,0.2,0.1c0,0,0.1,0.1,0.1,0.1c0,0,0.1,0.1,0.1,0.1c0,0,0.1,0,0.1,0.1c0.1,0.1,0.2,0.1,0.2,0.2c0,0,0,0,0,0
							c0.1,0.1,0.2,0.1,0.3,0.2l0,0c0.1,0.1,0.2,0.1,0.2,0.2l0,0c0,0,0,0,0,0.1c0,0,0,0.1,0,0.1c0,0-0.1,0.1-0.1,0.2
							c-0.2,0.2-0.4,0.6-0.6,1.1c0.2,0.4,0.6,0.8,1.1,0.9c0.4,0,0.6-0.2,0.7-0.5c0,0,0,0,0,0c0.1,0,0.3,1.2,0.6,1.6
							c-0.3,0.1-0.7,0.6-0.5,1.8c-0.2-0.2-0.7-0.5-0.9-0.7c-0.1-0.3-0.4-0.9-1.1-0.9c0.1,0.3,0.3,0.7,0.5,1.1c0,0,0.4,0.8,0.3,1.7
							c0.3-0.3,0.3-1.1,0.3-1.1c0,0,0.1,0,0.1,0c0.1,0,0.4,0.6,0.9,0.7c0.7,1.1,1.4,1.9,2.2,2.3c0,0.3,0,0.9-0.2,0.9
							c-0.6,0.1-1.1-0.3-1.6-0.2c0,0-0.1,0-0.1,0c-2.2-1-5,1.2-5.5,1.6c-0.3,0.2-0.5-0.1-0.5-0.1c-0.2-0.2-0.4-0.3-0.6-0.3
							c-0.2,0-0.4,0.1-0.6,0.3c0,0-0.3,0.3-0.5,0.1c-0.5-0.4-3.1-2.4-5.2-1.7c0-0.1-0.3-0.2-0.4-0.2c-0.2,0-0.3-0.2-0.4-0.2
							c-0.2-0.1-0.6,0-0.9-0.1c-0.1,0-0.2-0.1-0.3-0.1c-0.3-0.2-0.7-0.5-0.9-0.8c0,0-0.1-0.2-0.1-0.2c-0.1-0.1-0.2-0.2-0.2-0.5
							c-0.1-0.4,0.1-0.9,0.1-1.3c0-0.3,0-0.3,0.1-0.7c1.3-0.5,1.9-1.5,2.2-2c0,0,0.1-0.2,0.1-0.2c0.1,0,0.1,0,0.2,0
							c0.5,0,0.9-0.3,1.5-0.2c0,0,0.1,0.3,0.5,0.4c0,0.4,0,0.7,0.2,1c0,0.1,0.1,0.1,0.1,0.1c0.3-0.6,0.3-1.1,0.3-1.4
							c0,0,0-0.1,0-0.1c-0.1-0.7-0.4-0.8-0.7-1c-0.1-0.1-0.3-0.1-0.4-0.2c-0.2-0.1-0.4-0.3-0.6-0.6c0,0,0.1-0.1,0.1-0.2
							c0.4-0.4,0.6-1,0.7-1.6c0.3-0.4,1.1-0.2,1.4-0.2c0.1,0,0.2,0,0.3,0.1c0.1,0.1,0.1,0.2,0.2,0.2c0.1,0.1,0.3,0,0.4,0
							c0.1,0.1,0.1,0.2,0.1,0.2c0,0,0,0.1,0.1,0.2c0.4,0,0.9-0.2,1.1-0.3c0,0,0,0-0.1,0c-0.2-0.2-0.4-0.5-0.7-0.5
							c-0.3,0-0.4-0.3-0.6-0.4c-0.1,0-0.3-0.1-0.4,0c-0.6,0.1-1.1-0.2-1.7-0.2c-0.6,0-0.6,0.3-0.8,0.7c-0.1,0.1-0.2,0.3-0.3,0.3
							c-0.2,0.1-0.3,0.2-0.5,0.3l-0.1-0.2c-0.1-0.2-0.1-0.4-0.3-0.6c-0.3-0.5-0.7-0.8-1.3-1c-0.1-0.1-0.1-0.1-0.2-0.1
							c-0.1-0.1,0-0.2,0-0.2c0.2-0.1,0.5-0.1,0.7-0.2c0.5-0.3,0.3-0.7,0.1-0.7c-0.3-0.1-0.8-0.2-0.9-0.2c-0.1-0.1-0.4-0.5-0.6-0.6
							C14,9.9,14,9.5,13.8,9.4c-0.1,0-0.2,0-0.4,0.1c0-0.1-0.1-0.5-0.3-0.7c-0.2-0.1-0.2,0.1-0.2,0.2c0,0.1,0.3,0.2,0.3,0.6
							c0,0-0.1,0.1-0.1,0.1c0-0.2-0.1-0.4-0.3-0.5c-0.2-0.1-0.2,0.1-0.2,0.2c0,0.1,0.2,0.2,0.3,0.6c-0.1,0-0.1,0.1-0.2,0.1
							c-0.4-0.1-0.5-0.3-0.6-0.4c-0.1,0-0.3,0-0.2,0.2c0.1,0.2,0.4,0.3,0.5,0.3c0,0-0.1,0.1-0.1,0.1c-0.4-0.1-0.5-0.4-0.6-0.4
							c-0.1,0-0.3,0-0.2,0.2c0.1,0.3,0.6,0.4,0.6,0.4c-0.1,0.1-0.1,0.2-0.1,0.3c-0.3,0-0.9,0.1-0.8,0.5c0.1,0.1,0.5-0.2,0.9-0.1
							c0.2,0.4,0.6,0.4,0.7,0.4c0.1,0.1,0.2,0.3,0.2,0.5c0.1,0.3,0.3,0.6,0.5,0.8c0.2,0.3,0.4,0.6,0.6,0.9c0,0.1,0,0.1,0,0.3
							c-0.2,0.4-1,0.8-1.3,1.1c-0.3,0.3-3.1,2.4-3.5,3.4c-0.1,0.2-0.1,0.5-0.1,0.8c-0.2,0.1-0.6,0.2-0.7,0.1
							c-0.2-0.3,0.2-0.5,0.1-0.8c0-0.1-0.2-0.2-0.3-0.1c-0.7,0.5-0.3,1.4,0.1,1.6c0.5,0.2,0.6-0.3,0.9-0.1c0.1,0.1,1,0.9,0.8,1.5
							c0,0,0,0.1-0.1,0.1c-0.2,0.2-0.5,0.4-0.7,0.7c-0.5,0.3,0.4,2.2,0.4,3.1c-0.1,0.4,0.3,0.3,0.5,0.9c-0.2,0-0.4,0.1-0.5,0.2
							c0,0-0.1,0.1-0.1,0.3c0,0.3,0.2,0.5,0.5,0.5c0.3,0,0.5-0.2,0.5-0.5c0,0,0-0.1,0-0.1c0.1,0,0.2,0,0.4,0.1l0.4,0.2
							c0,0-1.4,1.2-3.8,0.5c0,0-1.1-0.3-0.8-1.3c0,0,0.1-0.2,0.2-0.2c0,0.1,0.1,0.2,0.2,0.3c0.1,0.1,0.2,0.1,0.3,0.1
							c0.3,0,0.5-0.2,0.5-0.5c0-0.1-0.1-0.3-0.1-0.4c0,0,0,0-0.1-0.1c0,0,0,0,0,0c0,0,0,0,0,0c-0.2-0.1-0.4-0.2-0.8-0.1
							c0,0-1,0.3-0.7,1.4c0,0-0.7-0.2-1,0.2c0,0-0.1,0.1-0.1,0.3v0v0c0,0.1,0,0.1,0.1,0.2c0.1,0.1,0.2,0.2,0.3,0.2
							c0.1,0,0.2-0.1,0.3-0.1c0,0,0,0,0,0c0,0,0.1-0.1,0.2,0c1.6,1.6,4.1,1,5.5-0.1c0,0,0.8-0.8,1.7-1.3c0.3,0.1,0.7,0.3,1,0.4
							c0,0.5,0.1,1.2,0.6,2.1c0,0-0.4,0.7-1.1,0.3c0,0-0.5-0.4-0.1-0.8c0,0,0.3-0.2,0.4,0.1c-0.1,0-0.3,0.1-0.3,0.3
							c0,0.2,0.1,0.3,0.3,0.3c0.1,0,0.3-0.1,0.3-0.3c0-0.1,0-0.4-0.2-0.6c0,0-0.2-0.2-0.6-0.2c-0.6,0.1-0.9,1.3,0.2,1.8
							c0,0,0.9,0.4,1.4-0.3c0,0,0-0.1,0.2,0.1c1,0.9,3.1,0.7,4,0c0,0,0.2-0.1,0.5-0.3c0,0.4,0.3,0.7,0.7,0.7c0.4,0,0.7-0.3,0.7-0.7
							c0-0.3-0.2-0.6-0.6-0.7c0,0-0.4-0.1-1.1,0.3c0,0-0.7,0.4-0.6,0.4c0.2-0.4,0.4-0.8,0.5-1.3c0.9,0.1,1.9,0.2,2.9,0.2
							c0,0.3-0.1,0.6-0.2,0.9c0,0-0.4,0.1-0.4,0.4c0,0,0,0.2,0.3,0.4c0,0,0.2,0.3,0.3,0.5c0,0,0,0.3,0.4,0.3c0,0,0.1,0,0.1,0
							c0,0,0,0,0.1,0c0.4,0,0.4-0.3,0.4-0.3c0.1-0.2,0.3-0.5,0.3-0.5c0.3-0.3,0.3-0.4,0.3-0.4c0-0.2-0.4-0.4-0.4-0.4
							c-0.1-0.3-0.2-0.6-0.2-0.9c1,0,2-0.1,2.9-0.2c0.1,0.5,0.2,1,0.5,1.3c0,0.1-0.6-0.4-0.6-0.4c-0.6-0.4-1.1-0.3-1.1-0.3
							c-0.3,0.1-0.6,0.3-0.6,0.7c0,0.4,0.3,0.7,0.7,0.7c0.4,0,0.7-0.3,0.7-0.7c0.2,0.1,0.5,0.3,0.5,0.3c0.9,0.6,3,0.9,4,0
							c0.2-0.2,0.2-0.1,0.2-0.1c0.5,0.7,1.4,0.3,1.4,0.3c1.2-0.5,0.8-1.7,0.2-1.8c-0.4-0.1-0.6,0.2-0.6,0.2
							c-0.2,0.2-0.2,0.5-0.2,0.6c0,0.1,0.1,0.3,0.3,0.3c0.2,0,0.3-0.1,0.3-0.3c0-0.1-0.1-0.3-0.3-0.3c0.1-0.3,0.4-0.1,0.4-0.1
							c0.4,0.5-0.1,0.8-0.1,0.8c-0.7,0.4-1.1-0.3-1.1-0.3c0.6-0.8,0.7-1.6,0.6-2.1c0.4-0.1,0.7-0.2,1.1-0.4c0.9,0.5,1.6,1.3,1.6,1.3
							c1.4,1.1,3.9,1.8,5.5,0.1c0.1-0.1,0.2-0.1,0.2,0c0,0,0,0,0,0c0.1,0.1,0.2,0.1,0.3,0.1c0.1,0,0.3-0.1,0.3-0.2
							c0-0.1,0.1-0.2,0.1-0.2v0v0C41.1,27.2,41,27.1,41,27.1z M11.9,26.6c0,0-0.1,0.1-0.2,0c-0.8-1,0.4-2.2,0.8-1.5
							c0,0-0.5,0-0.4,0.3c0,0,0,0.3,0.4,0.3c0,0,0.6-0.1,0.5-0.8c0,0-0.1-0.3-0.4-0.4c0,0-1-0.3-1.5,0.6c0,0-0.1,0.2-0.1,0.5
							c-0.1-0.1-0.3-0.2-0.4-0.2c-0.2-0.2-0.5-1.9-0.3-2.7c1.6-0.3,2.1-1.6,2.1-2c0.3,0.1,0.5,0.5,0.5,0.6c0,0.2-0.1,0.4,0.1,0.6
							c0.2,0.3,0.6,0.5,0.8,0.7c0.1,0.1,1.2,1,1.4,1c0.2,0,0.3-0.1,0.4-0.1c0.1,0,0.1,0,0.1,0.1c0,0,0.1,0.1,0.2,0.2
							c-0.3,0.2-0.7,0.5-1.2,1C14.8,24.8,14.4,25.4,11.9,26.6z M15.8,27.7c0,0-0.1,0.4-0.2,0.5c0,0-0.3-0.6-0.4-1.4
							c0.3,0.1,0.5,0.2,0.8,0.3C16,27.3,15.9,27.5,15.8,27.7z M18.9,29.2c0,0-1.7,0.6-2.8-0.5c0,0,0.1-0.7,0.4-1.5
							c0.9,0.2,1.9,0.4,2.9,0.5C19.3,28.3,19.2,29.1,18.9,29.2z M17.3,26c0.3-0.3,0.7-0.5,1.3-0.5c0,0,0.7,0,0.9,0.9
							C18.6,26.2,17.9,26.1,17.3,26z M18.9,24.9c-0.1,0-1.2,0.1-2.1,0.9c-0.5-0.1-0.9-0.2-1.3-0.4c0.1-0.1,0.1-0.3,0.3-0.4
							c0,0,1.4-1.7,3.9-0.7C19.8,24.4,19.6,24.8,18.9,24.9z M20.1,26.4c0.1-1,0.2-1.8,0.5-1.8c0,0,0.3,0,0.4,0.3
							c0.3,0.4,1.2,1,1.6,1.8C21.7,26.6,20.8,26.5,20.1,26.4z M24,26.6c0.4-0.8,1.2-1.3,1.6-1.8c0.2-0.2,0.4-0.3,0.4-0.3
							c0.4,0,0.4,0.8,0.5,1.8C25.8,26.5,25,26.6,24,26.6z M26.9,24.4c2.5-1,3.9,0.7,3.9,0.7c0.1,0.1,0.2,0.3,0.3,0.4
							c-0.3,0.1-0.8,0.2-1.3,0.4c-0.9-0.9-2-0.9-2.1-0.9C27,24.8,26.9,24.4,26.9,24.4z M28.1,25.4c0.5,0,1,0.2,1.3,0.5
							c-0.6,0.1-1.3,0.3-2.2,0.4C27.4,25.4,28.1,25.4,28.1,25.4z M27.7,29.2c-0.3,0-0.4-0.8-0.5-1.5c1-0.1,1.9-0.3,2.9-0.5
							c0.3,0.8,0.4,1.5,0.4,1.5C29.4,29.8,27.7,29.2,27.7,29.2z M31,28.2c-0.1-0.1-0.2-0.5-0.2-0.5c-0.1-0.2-0.1-0.4-0.2-0.6
							c0.3-0.1,0.5-0.2,0.8-0.3C31.4,27.6,31,28.2,31,28.2z"/>
					</g>
				</g>
			</g>
		</g>
	</g>
	<g>
		<g>
			<g>
				<path class="st2" d="M56.3,16.3c0-1.6-0.1-3.2-0.1-4.9h0c-0.2,0.8-0.3,1.4-0.5,1.9l-0.8,3h-1.6l-0.9-3.8
					c-0.1-0.3-0.2-0.7-0.3-1.1h0L52,16.3H51l0.2-6.1h2c0.2,0.5,0.7,3,1.1,5h0c0.4-1.9,1.1-4.5,1.3-5h1.8l0.2,6.1H56.3z"/>
				<path class="st2" d="M59,16.3v-3.5l-0.5-0.1v-0.8h1.7v4.4H59z M59,10.1h1.2v1.1H59V10.1z"/>
				<path class="st2" d="M64,16.3v-2.6c0-0.7-0.3-1-0.8-1c-0.3,0-0.6,0.1-0.8,0.3v3.3h-1.2v-4.4h0.8l0.2,0.5
					c0.3-0.3,0.7-0.6,1.4-0.6c1.1,0,1.6,0.7,1.6,1.8v2.7H64z"/>
				<path class="st2" d="M66.5,16.3v-3.5L66,12.6v-0.8h1.7v4.4H66.5z M66.5,10.1h1.2v1.1h-1.2V10.1z"/>
				<path class="st2" d="M69.7,13c0,0.7,1.9,0.5,1.9,1.9c0,0.8-0.6,1.4-1.7,1.4c-0.5,0-1-0.2-1.3-0.3l0.2-0.8c0.2,0.1,0.6,0.3,1,0.3
					c0.4,0,0.6-0.2,0.6-0.5c0-0.8-1.9-0.5-1.9-2c0-0.6,0.5-1.2,1.7-1.2c0.5,0,0.9,0.1,1.2,0.2l-0.2,0.9c-0.3-0.1-0.7-0.2-1.1-0.2
					C69.9,12.6,69.7,12.8,69.7,13z"/>
				<path class="st2" d="M74.2,16.4c-0.8,0-1.3-0.5-1.3-1.6v-2.1h-0.6v-0.8h0.7v-0.8l1.1-0.4v1.1h1.2v0.8H74v2.2
					c0,0.3,0.1,0.5,0.5,0.5c0.3,0,0.5-0.1,0.7-0.2l0.2,0.9C75.1,16.2,74.7,16.4,74.2,16.4z"/>
				<path class="st2" d="M76.9,14.4c0,0.7,0.4,1.1,1.1,1.1c0.5,0,0.9-0.2,1.3-0.4l0.2,0.8c-0.4,0.2-1,0.4-1.7,0.4
					c-1.4,0-2.2-0.8-2.2-2.3c0-1.4,0.6-2.3,2.1-2.3c1.3,0,1.9,1,1.9,2.1v0.5H76.9z M77.7,12.6c-0.6,0-0.8,0.5-0.8,1h1.6
					C78.5,13.1,78.3,12.6,77.7,12.6z"/>
				<path class="st2" d="M83,12.8c-0.1,0-0.3-0.1-0.5-0.1c-0.3,0-0.6,0.1-0.8,0.3v3.2h-1.2v-4.4h0.8c0,0.2,0.1,0.4,0.1,0.6h0
					c0.1-0.3,0.5-0.7,1-0.7c0.2,0,0.4,0,0.5,0.1C83,12.2,83,12.5,83,12.8z"/>
				<path class="st2" d="M84.1,16.3v-3.5l-0.5-0.1v-0.8h1.7v4.4H84.1z M84.1,10.1h1.2v1.1h-1.2V10.1z"/>
				<path class="st2" d="M90.3,14.1c0,1.5-0.8,2.3-2.1,2.3c-1.3,0-2.1-0.8-2.1-2.3c0-1.3,0.7-2.3,2.1-2.3
					C89.5,11.8,90.3,12.8,90.3,14.1z M89.1,14.1c0-1.1-0.3-1.4-0.9-1.4c-0.5,0-0.9,0.4-0.9,1.4c0,1,0.3,1.4,0.9,1.4
					C88.8,15.5,89.1,15.1,89.1,14.1z"/>
				<path class="st2" d="M96,12.2c-0.1-0.3-0.1-0.5-0.1-0.8v-1.3H97v6.2h-1l-0.1-0.5c-0.2,0.3-0.6,0.6-1.2,0.6c-1,0-1.8-0.7-1.8-2.3
					c0-1.5,0.8-2.3,1.9-2.3C95.3,11.8,95.7,11.9,96,12.2z M95.9,12.9c-0.2-0.1-0.5-0.2-0.8-0.2c-0.6,0-0.9,0.4-0.9,1.4
					c0,1,0.3,1.4,0.9,1.4c0.3,0,0.6-0.1,0.8-0.4V12.9z"/>
				<path class="st2" d="M99.1,14.4c0,0.7,0.4,1.1,1.1,1.1c0.5,0,0.9-0.2,1.3-0.4l0.2,0.8c-0.4,0.2-1,0.4-1.7,0.4
					c-1.4,0-2.2-0.8-2.2-2.3c0-1.4,0.6-2.3,2.1-2.3c1.3,0,1.9,1,1.9,2.1v0.5H99.1z M99.9,12.6c-0.6,0-0.8,0.5-0.8,1h1.6
					C100.7,13.1,100.5,12.6,99.9,12.6z"/>
				<path class="st2" d="M52.8,25.3c-0.8,0-1.5-0.3-2-0.6l0.4-0.9c0.3,0.3,1,0.6,1.5,0.6c0.6,0,0.9-0.3,0.9-0.8
					c0-1.3-2.8-0.7-2.8-2.8c0-0.9,0.7-1.7,2.1-1.7c0.7,0,1.3,0.2,1.8,0.4l-0.4,0.9c-0.3-0.2-0.9-0.3-1.4-0.3c-0.1,0-0.2,0-0.3,0.1
					c-0.4,0.1-0.6,0.3-0.6,0.6c0,1.1,2.8,0.7,2.8,2.8C55,24.4,54.2,25.3,52.8,25.3z"/>
				<path class="st2" d="M58.6,25.2l-0.2-0.5c-0.2,0.3-0.7,0.6-1.3,0.6c-0.9,0-1.5-0.6-1.5-1.4c0-0.8,0.6-1.3,1.7-1.3h0.9v-0.2
					c0-0.6-0.3-0.7-0.8-0.7c-0.5,0-1,0.1-1.3,0.3l-0.3-0.8c0.4-0.2,1.1-0.4,1.7-0.4c1.2,0,1.8,0.6,1.8,1.7v2.8H58.6z M58.3,23.3
					h-0.7c-0.5,0-0.7,0.2-0.7,0.6c0,0.4,0.2,0.6,0.7,0.6c0.3,0,0.6-0.1,0.8-0.3V23.3z"/>
				<path class="st2" d="M60.4,24.1v-5h1.2v5c0,0.4,0.2,0.4,0.7,0.4v0.8c0,0-0.3,0.1-0.6,0.1C60.8,25.3,60.4,24.8,60.4,24.1z"/>
				<path class="st2" d="M66.1,25.2l-0.2-0.5c-0.2,0.3-0.7,0.6-1.4,0.6c-1.1,0-1.6-0.6-1.6-1.8v-2.7h1.2v2.7c0,0.7,0.3,0.9,0.8,0.9
					c0.3,0,0.6-0.1,0.8-0.3v-3.3h1.2v4.4H66.1z"/>
				<path class="st2" d="M70.7,21.2c-0.1-0.3-0.1-0.5-0.1-0.8V19h1.2v6.2h-1l-0.1-0.5c-0.2,0.3-0.6,0.6-1.2,0.6
					c-1,0-1.8-0.7-1.8-2.3c0-1.5,0.8-2.3,1.9-2.3C70.1,20.7,70.5,20.9,70.7,21.2z M70.6,21.8c-0.2-0.1-0.5-0.2-0.8-0.2
					c-0.6,0-0.9,0.4-0.9,1.4c0,1,0.3,1.4,0.9,1.4c0.3,0,0.6-0.1,0.8-0.4V21.8z"/>
			</g>
			<g>
				<path class="st2" d="M54.8,95.1c-0.7,0.3-1.2,0.4-1.8,0.4c-1.5,0-2.2-1-2.2-2.6c0-1.5,0.7-2.5,2.3-2.5c0.7,0,1.2,0.2,1.6,0.4
					l-0.4,0.7c-0.3-0.2-0.7-0.3-1.2-0.3c-0.9,0-1.3,0.6-1.3,1.6c0,1.2,0.4,1.8,1.3,1.8c0.3,0,0.6,0,0.8-0.2v-0.9h-0.7L53.2,93h1.6
					V95.1z"/>
				<path class="st2" d="M58.8,93.7c0,1.2-0.6,1.9-1.7,1.9c-1.1,0-1.7-0.6-1.7-1.9c0-1,0.6-1.8,1.7-1.8
					C58.2,91.9,58.8,92.7,58.8,93.7z M57.8,93.7c0-0.9-0.3-1.2-0.7-1.2c-0.4,0-0.7,0.3-0.7,1.2c0,0.8,0.2,1.2,0.7,1.2
					C57.6,94.9,57.8,94.6,57.8,93.7z"/>
				<path class="st2" d="M60.4,92.3c0.2-0.2,0.5-0.4,0.9-0.4c0.8,0,1.4,0.6,1.4,1.8c0,1.2-0.7,1.9-1.6,1.9c-0.5,0-0.8-0.2-1-0.5
					L60,95.5h-0.5v-5h1v1.2L60.4,92.3z M60.4,94.5c0.1,0.2,0.4,0.4,0.6,0.4c0.4,0,0.7-0.3,0.7-1.2c0-0.9-0.3-1.1-0.7-1.1
					c-0.2,0-0.5,0.1-0.7,0.3V94.5z"/>
				<path class="st2" d="M63.8,95.5v-2.9l-0.4-0.1v-0.6h1.4v3.6H63.8z M63.7,90.5h1v0.9h-1V90.5z"/>
				<path class="st2" d="M66.4,94c0,0.6,0.3,0.9,0.9,0.9c0.4,0,0.7-0.1,1-0.3l0.2,0.7c-0.3,0.2-0.8,0.3-1.3,0.3
					c-1.1,0-1.7-0.7-1.7-1.9c0-1.1,0.5-1.8,1.7-1.8c1.1,0,1.5,0.8,1.5,1.7V94H66.4z M67.1,92.6c-0.5,0-0.7,0.4-0.7,0.9h1.3
					C67.7,93,67.6,92.6,67.1,92.6z"/>
				<path class="st2" d="M71.3,92.7c-0.1,0-0.3-0.1-0.4-0.1c-0.3,0-0.5,0.1-0.6,0.2v2.6h-0.9v-3.6H70l0.1,0.5h0
					c0.1-0.3,0.4-0.5,0.8-0.5c0.2,0,0.3,0,0.4,0.1L71.3,92.7z"/>
				<path class="st2" d="M74.1,95.5v-2.1c0-0.5-0.2-0.8-0.6-0.8c-0.2,0-0.5,0.1-0.6,0.2v2.7h-1v-3.6h0.7l0.1,0.4
					c0.2-0.2,0.6-0.5,1.1-0.5c0.9,0,1.3,0.5,1.3,1.4v2.2H74.1z"/>
				<path class="st2" d="M79.1,93.7c0,1.2-0.6,1.9-1.7,1.9c-1.1,0-1.7-0.6-1.7-1.9c0-1,0.6-1.8,1.7-1.8
					C78.5,91.9,79.1,92.7,79.1,93.7z M78.1,93.7c0-0.9-0.3-1.2-0.7-1.2c-0.4,0-0.7,0.3-0.7,1.2c0,0.8,0.2,1.2,0.7,1.2
					C77.9,94.9,78.1,94.6,78.1,93.7z"/>
				<path class="st2" d="M83.7,92.2c-0.1-0.2-0.1-0.4-0.1-0.7v-1.1h0.9v5h-0.8l-0.1-0.4c-0.1,0.2-0.5,0.5-0.9,0.5
					c-0.8,0-1.5-0.6-1.5-1.9c0-1.2,0.7-1.9,1.5-1.9C83.2,91.9,83.5,92,83.7,92.2z M83.6,92.7c-0.1-0.1-0.4-0.2-0.6-0.2
					c-0.5,0-0.7,0.3-0.7,1.1c0,0.8,0.3,1.2,0.7,1.2c0.2,0,0.5-0.1,0.7-0.3V92.7z"/>
				<path class="st2" d="M86.2,94c0,0.6,0.3,0.9,0.9,0.9c0.4,0,0.7-0.1,1-0.3l0.2,0.7c-0.3,0.2-0.8,0.3-1.3,0.3
					c-1.1,0-1.7-0.7-1.7-1.9c0-1.1,0.5-1.8,1.7-1.8c1.1,0,1.5,0.8,1.5,1.7V94H86.2z M86.9,92.6c-0.5,0-0.7,0.4-0.7,0.9h1.3
					C87.5,93,87.4,92.6,86.9,92.6z"/>
				<path class="st2" d="M92.7,95.6c-1.4,0-2.1-0.9-2.1-2.5c0-1.5,0.7-2.5,2.1-2.5c0.7,0,1.3,0.1,1.7,0.4L94,91.7
					c-0.3-0.2-0.7-0.3-1.2-0.3c-0.8,0-1.2,0.6-1.2,1.6c0,1.1,0.4,1.7,1.2,1.7c0.5,0,1-0.2,1.3-0.4l0.3,0.8
					C93.9,95.4,93.4,95.6,92.7,95.6z"/>
				<path class="st2" d="M95.1,95.5v-5h1v1.3c0,0.2-0.1,0.4-0.1,0.6c0.2-0.2,0.5-0.5,1-0.5c1,0,1.3,0.5,1.3,1.4v2.2h-1v-2.1
					c0-0.5-0.2-0.8-0.6-0.8c-0.2,0-0.5,0.1-0.6,0.2v2.7H95.1z"/>
				<path class="st2" d="M99.3,95.5v-2.9l-0.4-0.1v-0.6h1.4v3.6H99.3z M99.3,90.5h1v0.9h-1V90.5z"/>
				<path class="st2" d="M101.1,94.5v-4.1h0.9v4c0,0.3,0.2,0.3,0.6,0.3v0.7c0,0-0.3,0.1-0.5,0.1C101.4,95.6,101.1,95.2,101.1,94.5z"
					/>
				<path class="st2" d="M104,94c0,0.6,0.3,0.9,0.9,0.9c0.4,0,0.7-0.1,1-0.3l0.2,0.7c-0.3,0.2-0.8,0.3-1.3,0.3
					c-1.1,0-1.8-0.7-1.8-1.9c0-1.1,0.5-1.8,1.7-1.8c1.1,0,1.5,0.8,1.5,1.7V94H104z M104.7,92.6c-0.5,0-0.7,0.4-0.7,0.9h1.3
					C105.3,93,105.2,92.6,104.7,92.6z"/>
			</g>
		</g>
	</g>
</g>
</svg>
