<?xml version="1.0" encoding="utf-8"?>
<!-- Generator: Adobe Illustrator 23.0.1, SVG Export Plug-In . SVG Version: 6.00 Build 0)  -->
<svg version="1.0" id="Capa_1" xmlns="http://www.w3.org/2000/svg" xmlns:xlink="http://www.w3.org/1999/xlink" x="0px" y="0px"
	 viewBox="0 0 142 100.1" style="enable-background:new 0 0 142 100.1;" xml:space="preserve">
<style type="text/css">
	.st0{fill:#C2350E;}
	.st1{fill:#FFFFFF;}
</style>
<g>
	<path class="st0" d="M140,49.5c-0.9-1.2-2.4-1.8-3.9-1.7l-1.6,0.1c-0.6,0.1-1.2,0.2-1.7,0.5c-2.1-2.2-5-3.3-8.6-3
		c-3.4,0.3-6.2,1.5-8.5,3.3c-1.6-1.5-3.7-2.3-6.1-2.1c-1.2,0.1-2.3,0.4-3.2,0.9c-0.7-0.3-1.4-0.4-2.2-0.4l-3.6,0.3
		c9.4-3.9,12.1-16.2,11.4-23.7c-0.9-10.1-6.4-12-9.9-12.2l0.6-4.8c0.2-1.4-0.4-2.9-1.4-3.8c-1.1-1-2.5-1.4-4-1L90,3.6
		c-1.8,0.4-3.2,1.9-3.4,3.8l-1,8.2c-0.2-0.3-0.4-0.5-0.6-0.8c-0.9-1-2.2-1.5-3.6-1.3l-7.3,0.6c-1,0.1-1.8,0.5-2.5,1.1
		c-0.8-0.5-1.7-0.7-2.7-0.6l-7.3,0.6c-1.3,0.1-2.5,0.8-3.2,1.8l0.8-6.4c0.2-1.4-0.4-2.9-1.4-3.8c-1.1-1-2.5-1.4-3.9-1l-7.4,1.7
		c-1.8,0.4-3.2,1.9-3.4,3.8l-1.1,8.5c-1.7-1.8-4.4-2.9-8.3-2.5c-12.4,1.1-16.9,14.7-16,24C18.2,48.5,23,52.8,30,52.6l-0.2,1.7
		c-0.4-0.1-0.8-0.1-1.3-0.1l-7.3,0.6c-0.5,0-0.9,0.1-1.3,0.3c-1-0.2-2.1-0.3-3.4-0.2C4.7,56.1,0.4,69.7,1.1,78.7
		c0.8,8.7,6.7,12.1,12.2,11.6c1.8-0.2,4.2-0.8,6.4-2.5c1.7,1.1,3.8,1.6,6.1,1.4c1.1-0.1,2.3-0.3,3.7-0.9c0.5,0.1,1,0.2,1.5,0.1
		l7.3-0.6c2.1-0.2,3.8-1.8,4-3.9l0-0.2c2,2.3,5.1,3.5,8.9,3.2c2.4-0.2,4.6-1,6.4-2.5c1.3,0.6,2.7,1,4.3,1.2l0.9,9.5
		c0.2,1.9,1.9,3.3,3.8,3.1l50.4-4.6c1.9-0.2,3.4-1.8,3.2-3.7l-0.8-9.3c0.1,0,0.3,0,0.4,0c0.2,0.1,0.3,0,0.3,0c0.5,0,1,0,1.6-0.1
		c8.4-0.7,14.2-8.5,14.7-19.2c2.5-2.5,3.7-5.8,4.4-7.8C141.2,52.2,141,50.7,140,49.5"/>
	<g>
		<path class="st1" d="M83.2,85.2C83,85,82.8,84.9,82.5,85c-0.2,0-0.4,0.1-0.6,0.3c-0.1,0.2-0.2,0.5-0.2,0.8l0.6,6.7
			c0,0.3,0.1,0.6,0.3,0.8c0.2,0.2,0.4,0.2,0.6,0.2c0.3,0,0.5-0.1,0.6-0.3c0.1-0.2,0.2-0.5,0.2-0.8l-0.6-6.7
			C83.5,85.6,83.4,85.3,83.2,85.2z"/>
		<path class="st1" d="M92.9,84.3c-0.5,0-0.7,0.3-0.7,0.4L90.1,92l-3.4-6.9c0-0.1-0.2-0.3-0.8-0.3c-0.6,0-0.5,0.5-0.5,0.5l0.7,7.6
			c0,0.2,0.2,0.4,0.4,0.4c0.2,0,0.4-0.2,0.4-0.4L86.3,86l0,0l3.4,6.7c0,0,0.2,0.4,0.5,0.3c0.4,0,0.5-0.4,0.5-0.4l2.1-7.2l0,0
			l0.6,6.9c0,0.2,0.2,0.4,0.4,0.4c0.2,0,0.4-0.2,0.4-0.4l-0.7-7.6C93.5,84.7,93.5,84.2,92.9,84.3z"/>
		<path class="st1" d="M72,86.9c0-0.4-0.1-0.6-0.3-0.8c-0.2-0.2-0.4-0.2-0.6-0.2c-0.3,0-0.5,0.1-0.6,0.3c-0.1,0.2-0.2,0.5-0.2,0.8
			l0.4,4.2c0.1,0.7,0,1.3-0.3,1.7c-0.2,0.4-0.7,0.6-1.4,0.7c-0.5,0-0.9,0-1.1-0.2c-0.3-0.2-0.5-0.4-0.6-0.7
			c-0.1-0.3-0.2-0.7-0.3-1.2l-0.4-4.2c0-0.3-0.1-0.6-0.3-0.8c-0.2-0.2-0.4-0.2-0.7-0.2c-0.3,0-0.4,0.1-0.6,0.3
			c-0.1,0.2-0.2,0.5-0.2,0.8l0.4,4.1c0.1,0.6,0.2,1.2,0.4,1.6c0.2,0.5,0.4,0.8,0.8,1.1c0.3,0.3,0.7,0.5,1.2,0.6
			c0.5,0.1,1,0.1,1.7,0.1c0.5,0,1-0.2,1.4-0.3c0.4-0.2,0.7-0.4,1-0.7c0.3-0.4,0.5-0.8,0.6-1.2c0.1-0.5,0.1-1,0-1.7L72,86.9z"/>
		<path class="st1" d="M80.1,87.2c-0.2-0.5-0.4-0.8-0.8-1.1c-0.3-0.3-0.7-0.5-1.2-0.6c-0.5-0.1-1-0.1-1.7-0.1c-0.5,0-1,0.1-1.4,0.3
			c-0.4,0.2-0.7,0.4-1,0.7c-0.3,0.4-0.5,0.8-0.6,1.2c-0.1,0.5-0.1,1,0,1.7l0.4,4.1c0,0.4,0.1,0.6,0.3,0.8c0.2,0.2,0.4,0.2,0.6,0.2
			c0.3,0,0.5-0.1,0.6-0.3c0.1-0.2,0.2-0.5,0.2-0.8l-0.4-4.2c-0.1-0.7,0-1.3,0.3-1.7c0.2-0.4,0.7-0.6,1.4-0.7c0.5,0,0.9,0,1.1,0.2
			c0.3,0.2,0.5,0.4,0.6,0.7c0.1,0.3,0.2,0.7,0.3,1.2l0.4,4.2c0,0.3,0.1,0.6,0.3,0.8c0.2,0.2,0.4,0.2,0.6,0.2c0.3,0,0.4-0.1,0.6-0.3
			c0.1-0.2,0.2-0.5,0.2-0.8l-0.4-4.1C80.4,88.2,80.3,87.6,80.1,87.2z"/>
		<path class="st1" d="M117,88c-0.4-0.1-0.5,0.3-0.5,0.3c0,0.2-0.1,0.3-0.1,0.5c-0.1,0.3-0.3,0.6-0.5,0.9c-0.2,0.3-0.5,0.5-0.8,0.6
			c-0.3,0.2-0.6,0.3-1,0.3c-0.6,0-1,0-1.5-0.2c-0.4-0.2-0.8-0.4-1.1-0.8c-0.3-0.3-0.5-0.7-0.7-1.2c-0.2-0.4-0.3-0.9-0.3-1.3
			c0-0.5,0-0.9,0.1-1.4c0.1-0.5,0.2-0.9,0.5-1.2c0.2-0.4,0.5-0.7,0.9-0.9c0.4-0.2,0.8-0.4,1.4-0.4c0.3,0,0.6,0,0.9,0.1
			c0.3,0.1,0.6,0.2,0.8,0.3c0.2,0.2,0.5,0.4,0.6,0.6c0.1,0.1,0.1,0.1,0.1,0.2v0c0,0,0.1,0.3,0.6,0.1c0.1,0,0.3-0.2,0.1-0.5
			c0-0.1-0.1-0.1-0.1-0.2c-0.2-0.3-0.5-0.6-0.9-0.8c-0.3-0.2-0.7-0.4-1.1-0.4c-0.4-0.1-0.8-0.1-1.2-0.1c-0.7,0.1-1.2,0.2-1.7,0.5
			c-0.5,0.3-0.9,0.6-1.1,1.1c-0.3,0.4-0.5,0.9-0.6,1.5c-0.1,0.5-0.1,1.1-0.1,1.7c0.1,0.6,0.2,1.1,0.4,1.7c0.2,0.5,0.5,1,0.9,1.3
			c0.4,0.4,0.8,0.7,1.3,0.9c0.5,0.2,1.1,0.3,1.8,0.2c0.5,0,0.9-0.2,1.3-0.3c0.4-0.2,0.7-0.4,1-0.8c0.3-0.3,0.5-0.7,0.6-1.1
			c0.1-0.2,0.1-0.4,0.2-0.7C117.3,88,117,88,117,88z"/>
		<path class="st1" d="M98.5,84.2c0,0-0.2-0.3-0.6-0.3c-0.4,0-0.5,0.4-0.5,0.4l0,0L95,92.3c0,0-0.1,0.3,0.3,0.3
			c0.4,0,0.5-0.4,0.5-0.4l0.7-2.4l3.8-0.3l1.1,2.3c0,0,0.2,0.3,0.6,0.3c0.4,0,0.3-0.3,0.3-0.3L98.5,84.2z M96.6,89.2l1.3-4.5l2,4.2
			L96.6,89.2z"/>
		<path class="st1" d="M109.5,91c-0.1-0.2-0.1-0.4-0.2-0.6c0-0.2-0.1-0.4-0.1-0.6c0-0.2-0.1-0.4-0.1-0.5c0-0.3-0.1-0.5-0.2-0.7
			c-0.1-0.2-0.2-0.4-0.3-0.6c-0.1-0.2-0.3-0.3-0.5-0.4c-0.2-0.1-0.4-0.1-0.7-0.2l0,0c0.5-0.2,0.9-0.4,1.1-0.9
			c0.2-0.4,0.3-0.9,0.3-1.4c0-0.4-0.1-0.7-0.3-1c-0.2-0.3-0.4-0.5-0.6-0.6c-0.2-0.2-0.5-0.3-0.8-0.3c-0.3-0.1-0.6-0.1-1-0.1
			l-3.5,0.3c-0.3,0-0.3,0.3-0.3,0.3l0.7,7.8c0,0.2,0.2,0.4,0.4,0.4c0.2,0,0.4-0.2,0.4-0.4l0,0l-0.3-3.4l3-0.3c0.4,0,0.7,0,0.9,0.1
			c0.2,0.1,0.4,0.3,0.5,0.5c0.1,0.2,0.2,0.5,0.3,0.8c0.1,0.3,0.1,0.6,0.2,0.9c0,0.1,0,0.2,0.1,0.3c0,0.1,0,0.2,0.1,0.4
			c0,0.1,0.1,0.2,0.1,0.4c0,0,0.1,0.3,0.5,0.2c0.4,0,0.3-0.3,0.3-0.3L109.5,91z M106.5,87.2l-3,0.2l-0.3-3.3l3-0.2
			c0.6-0.1,1.1,0.1,1.4,0.3c0.3,0.3,0.5,0.7,0.6,1.2c0,0.3,0,0.5-0.1,0.7c-0.1,0.2-0.2,0.4-0.3,0.5c-0.2,0.2-0.3,0.3-0.5,0.4
			C107,87.1,106.7,87.2,106.5,87.2z"/>
	</g>
	<g>
		<path class="st1" d="M96.2,56.6c-0.2-1.9-1.5-3.7-3.8-3.5c-2.4,0.2-4.2,2-5.8,3.7l0.4-3.2l-7.3,0.6l-0.9,7.3c-1,0.5-2.1,0.8-3,0.9
			c-0.2,0-0.4,0-0.6-0.1c-0.5-5.3-2.8-7.9-7.2-7.5c-10.4,0.9-12.8,13.3-12.3,19.1c0.1,0.6,0.1,1.1,0.3,1.6c-0.6,1-1.4,1.7-2.6,1.8
			c-1.5,0.1-2.1-0.7-2.2-1.9c-0.2-2.8,1.6-9.2,1.3-13.2c-0.4-4-2.9-5.5-6.1-5.2c-1.6,0.1-3.8,0.7-5.7,3.3l1.6-13L35,49l-3.6,29.2
			c-0.6,0.9-1.4,1.5-2.4,1.6c-1.4,0.1-2.1-0.6-2.3-2c0-0.5,0-1,0.1-1.6l2.1-17.5l-7.3,0.6L21.3,62l0-0.4c-0.1-1.5-1.4-2.5-4.3-2.2
			c-8.8,0.8-12,12-11.4,18.8c0.5,6,4,7.8,7.4,7.5c3.6-0.3,5.8-2.8,7.1-5.3c0.6,3,2.5,4.5,5.4,4.2c1.5-0.1,3.5-0.7,5.4-2.5L30.6,84
			l7.3-0.6l2-16.7c0.2-1.4,1.5-4.6,3.4-4.8c1.3-0.1,1.9,0.7,2.1,2.4c0.3,3.2-1.4,9.6-1.1,13.1c0.3,2.9,2.1,5.6,6.5,5.2
			c1.9-0.2,4.3-0.9,6.3-4.2c1.5,2.4,4.2,3.2,7.4,2.9c6.2-0.5,10.8-6.8,10.7-16.3c1.1-0.3,2.2-0.7,3.2-1.1l-2,16.1l7.3-0.6l2.4-19.5
			c1.2-1.3,2-2.1,3.5-2.2c1.5-0.1,0.4,3.3,3.2,3.1C95.3,60.4,96.3,58.4,96.2,56.6z M19.6,75.8c-0.4,3-2.3,4.7-3.8,4.8
			c-0.9,0.1-2.5,0.2-2.9-3.7c-0.4-4.7,1.6-14.1,5.9-14.5c1.6-0.1,2.2,1.1,2.2,1.7L19.6,75.8z M66.2,76.5c-1.9,0.2-2.6-0.5-2.9-3.9
			c-0.4-4.9,1.9-14.5,5.5-14.8c1.3-0.1,1.9,0.6,2.2,2.8c-0.9,0.5-1.5,1.5-1.3,2.9c0.1,1,0.5,1.8,1.5,2
			C70.8,71.5,68.6,76.3,66.2,76.5z"/>
		<path class="st1" d="M113.9,55c-0.2-1.9-1.5-3.7-3.8-3.5c-2.4,0.2-4.2,2-5.8,3.7l0.4-3.2l-7.3,0.6l-3.1,25.7l7.3-0.6l2.4-19.5
			c1.2-1.3,2-2.1,3.5-2.2c1.5-0.1,0.4,3.3,3.2,3.1C113.1,58.8,114.1,56.8,113.9,55z"/>
		<path class="st1" d="M134.9,52.3c-0.5,1-1.5,3.3-3.3,3.8c-0.7-4.5-3-6.6-7-6.3C114.2,50.7,112,63.2,112.5,69
			c0.5,5.8,4.1,7.7,8.8,7.3c6.4-0.6,10.9-7.1,10.6-16.9c2.5-1.7,3.8-5,4.6-7.2L134.9,52.3z M122.9,71.5c-1.9,0.2-2.6-0.5-2.9-3.9
			c-0.4-4.9,1.7-14.5,5.3-14.8c1.3-0.1,1.9,0.6,2.2,2.7c-0.8,0.5-1.3,1.4-1.2,2.8c0.1,1.3,0.6,1.9,1.4,2.2
			C127.4,66.5,125.4,71.3,122.9,71.5z"/>
	</g>
	<g>
		<path class="st1" d="M33.4,43.6c-2.4,0.2-3.7-0.5-4-3.9c-0.5-5.6,2-15.1,5.2-15.4c1-0.1,1.5,0.7,1.6,1.9c0.1,0.9,0,1.9-0.3,3
			c0.6,0.4,1.3,0.5,1.8,0.5c1.5-0.1,2.6-1.4,2.4-3.9c-0.2-2.3-1.5-4.5-6-4.2c-10.3,0.9-12.5,13.3-12,19.2c0.5,5.7,3.8,7.8,8.6,7.3
			c6.7-0.6,10.6-5.7,13.1-10.6l-1.7,0.2C39.6,40.8,37.4,43.2,33.4,43.6z"/>
		<path class="st1" d="M57.7,36.3c-0.5,2.6-2.2,4.7-4.2,4.8c-1.4,0.1-2.1-0.3-2.2-1.7c0-0.5,0-1,0.1-1.6l3.4-27.8l-7.4,1.7
			l-3.2,25.8c-0.1,1.2-0.2,2.4-0.1,3.3c0.4,4.2,2.9,5.9,5.9,5.6c2.7-0.2,7.6-1.8,9.8-10.3L57.7,36.3z"/>
		<path class="st1" d="M81.8,38.7c-1.4,0.1-2.1-0.3-2.2-1.7c0-0.5,0-1,0.1-1.6l2.1-17.5l-7.3,0.6l-2,16.5c-0.5,2.6-1.7,4.6-3.7,4.8
			c-1.1,0.1-1.6-0.8-1.7-1.9c0-0.5,0-0.9,0-1.4L69.2,19L62,19.6l-2,16.5c-0.1,1.2-0.2,2.4-0.1,3.3c0.4,4.2,2.9,5.9,5.9,5.6
			c2.1-0.2,4.9-1.1,7.1-5.5c0.6,3.1,2.5,4.6,5.4,4.4c2.7-0.2,7.2-1.7,9.3-10.2l-2.1,0.2C84.9,36.5,83.7,38.5,81.8,38.7z"/>
		<path class="st1" d="M107.6,24.2c-0.6-6.4-3.2-8.4-6.7-8.1c-1,0.1-2.1,0.3-4,1.8l1.4-11.6l-7.4,1.7l-3.2,25.8
			c-0.2,1.1-0.2,2.1-0.1,2.9c0.4,4,3,6.3,7.6,5.8C106,41.5,108.1,30.1,107.6,24.2z M97.7,37.3c-1.8,0.2-2.8-0.6-2.9-2.1
			c0-0.4,0-0.8,0-1.2L96.5,21c0.5-0.7,2.2-1.1,2.9-1.2c1.8-0.2,2.9,2.1,3.1,4.6C103,29.7,101,37,97.7,37.3z"/>
	</g>
</g>
</svg>
