<?xml version="1.0" encoding="utf-8"?>
<!-- Generator: Adobe Illustrator 23.0.1, SVG Export Plug-In . SVG Version: 6.00 Build 0)  -->
<svg version="1.0" id="Capa_1" xmlns="http://www.w3.org/2000/svg" xmlns:xlink="http://www.w3.org/1999/xlink" x="0px" y="0px"
	 viewBox="0 0 200 44.9" style="enable-background:new 0 0 200 44.9;" xml:space="preserve">
<style type="text/css">
	.st0{fill:#6B6B6B;}
	.st1{fill-rule:evenodd;clip-rule:evenodd;fill:#6B6B6B;}
	.st2{fill:#B52725;}
	.st3{fill:#1D1D20;}
	.st4{fill:#FFFFFF;}
	.st5{fill:#1D1D21;}
	.st6{fill:none;stroke:#FFFFFF;stroke-width:0.5;stroke-miterlimit:10;}
	.st7{fill:#00FF2A;}
</style>
<g>
	<path class="st4" d="M32.3,1.6H11.6C5.8,1.6,1.2,6.2,1.2,11.9v20.8c0,5.7,4.6,10.4,10.4,10.4h20.8c5.7,0,10.4-4.6,10.4-10.4v-0.6
		c-0.9,1-3.1,2.1-5.7,2.1c-3.9,0-7.8-2.3-8.2-6.7h-0.3c-2,6.3-6.4,7.3-8.8,7.3c-9.1,0-8.9-11.6-8.3-17c0.1-1.3,0.3-6.2,2.8-6.2
		c2,0,1.7,2,1.6,4c-0.2,4.6-1.4,15.8,5.1,15.8c8,0,7.1-10.2,8-15.1c0.4-2,3.6-1.9,3.5,0.6c-0.1,2.6-0.3,4.7-0.4,7.5
		c-0.4,9.1,6.9,9.3,10.7,6.9V11.9C42.7,6.2,38,1.6,32.3,1.6z"/>
	<path class="st4" d="M126.1,11.5c-1.4,0-1.8,0.6-1.9,0.8l-7.3,19.7l-7.3-19.7c-0.1-0.2-0.5-0.9-1.9-0.9c-1.5,0-1.5,1.1-1.5,1.1
		v21.1c0,0.6,0.5,1.1,1.1,1.1c0.6,0,1-0.5,1-1.1V14.5h0.1l7.2,19.3c0,0,0.3,1,1.4,1c1,0,1.4-0.9,1.4-1l7.2-19.3h0.1v19.2
		c0,0.6,0.5,1.1,1.1,1.1c0.6,0,1.1-0.5,1.1-1.1V12.7C127.6,12.7,127.6,11.5,126.1,11.5z"/>
	<path class="st4" d="M67.3,11.5c-1.3,0-2.2,1-2.2,2.3V26c0,3.3-1.5,5.2-4.8,5.2c-3.3,0-4.8-1.9-4.8-5.2c0,0,0-10.1,0-12.1
		c0-1.3-0.9-2.3-2.2-2.3c-1.3,0-2.2,1-2.2,2.3V26c0,6,3.3,8.7,9.3,8.7c6,0,9.3-2.7,9.3-8.7V13.8C69.6,12.5,68.7,11.5,67.3,11.5z"/>
	<path class="st4" d="M196.1,31.5L196.1,31.5c0,0,0.7-0.1,0.7-0.9c0-0.7-0.6-1-1.1-1h-1.5c-0.1,0-0.1,0-0.1,0.1v3.5
		c0,0.1,0.1,0.2,0.2,0.2c0.1,0,0.2-0.1,0.2-0.2v-1.6h1.4c0.4,0,0.6,0.2,0.7,0.9c0,0.2,0,0.4,0,0.4c0,0.3,0,0.4,0.3,0.4
		c0.1,0,0.1,0,0.1-0.1c0-0.1-0.1-0.3-0.1-1C196.7,31.7,196.3,31.5,196.1,31.5z M195.6,31.3h-1.3v-1.5h1.3c0.5,0,0.8,0.3,0.8,0.8
		C196.4,31.1,196.1,31.3,195.6,31.3z"/>
	<path class="st4" d="M83,11.5c-6,0-9.3,2.7-9.3,8.8v12.2c0,1.3,0.9,2.3,2.2,2.3c1.3,0,2.2-0.9,2.2-2.3c0,0,0-11,0-12.2
		c0-3.3,1.5-5.2,4.8-5.2c3.3,0,4.8,1.9,4.8,5.2c0,0,0,10.1,0,12.2c0,1.3,0.9,2.3,2.2,2.3c1.3,0,2.2-0.9,2.2-2.3V20.3
		C92.3,14.2,89,11.5,83,11.5z"/>
	<path class="st4" d="M98.8,11.5c-1.3,0-2.2,1-2.2,2.3v18.7c0,1.3,0.9,2.2,2.2,2.2c1.3,0,2.3-0.9,2.3-2.2V13.8
		C101,12.5,100.1,11.5,98.8,11.5z"/>
	<path class="st4" d="M164,23.4L164,23.4c0-0.1,4.3-0.5,4.3-5.7c0-4.1-3.4-6.2-6.7-6.2h-9.3c-0.5,0-0.8,0.3-0.8,0.8v21.4
		c0,0.6,0.5,1.1,1.1,1.1c0.6,0,1.1-0.5,1.1-1.1v0v-9.5h8.3c2.6,0,3.8,1.5,4.1,5.4c0.1,1,0.1,2.3,0.1,2.6c0.1,1.9,0.3,2.6,1.6,2.6
		c0.7,0,0.9-0.3,0.9-0.6c0-0.5-0.6-1.7-0.6-5.8C167.9,24.4,165.3,23.5,164,23.4z M161.5,22.4h-7.9v-9.1h7.9c2.9,0,4.8,1.7,4.8,4.7
		C166.2,20.7,164.2,22.4,161.5,22.4z"/>
	<path class="st4" d="M141.2,12.4c0,0-0.4-0.9-1.5-0.9c-1.2,0-1.5,0.9-1.5,0.9v0L129.7,34c0,0-0.3,0.8,0.8,0.8
		c1.1,0,1.4-0.8,1.4-0.8l2.5-6.8h10.1l2.6,6.8c0,0,0.3,0.8,1.4,0.8c1.1,0,0.8-0.8,0.8-0.8L141.2,12.4z M135.1,25.4l4.4-11.7
		l4.3,11.7H135.1z"/>
	<path class="st4" d="M189.7,26.9c-1.1-0.4-1.3,0.6-1.3,0.6v0c-0.1,0.4-0.2,0.8-0.4,1.2c-0.4,0.9-2,4.3-6.4,4.3
		c-4.5,0-8.3-3.3-8.3-9.7c0-4.8,2.1-9.9,8.3-9.9c3.7,0,5.5,2.2,5.9,2.9c0.3,0.6,0.6,1.5,1.8,1c0.3-0.1,0.9-0.5,0.5-1.3
		c-0.1-0.2-0.2-0.4-0.3-0.5c-0.5-0.9-2.8-3.9-7.8-3.9c-6.4,0-10.4,4.5-10.4,11.7c0,6.7,4,11.5,10.4,11.5c5.8,0,7.7-4.1,8.2-5.2
		c0.2-0.5,0.4-1.1,0.6-1.7C190.5,27.1,189.7,26.9,189.7,26.9z"/>
	<path class="st4" d="M195.4,28.1c-1.8,0-3.3,1.5-3.3,3.3c0,1.8,1.5,3.3,3.3,3.3c1.8,0,3.3-1.5,3.3-3.3
		C198.7,29.6,197.2,28.1,195.4,28.1z M195.4,34.5c-1.7,0-3-1.3-3-3c0-1.7,1.3-3,3-3c1.7,0,3,1.3,3,3C198.4,33.1,197,34.4,195.4,34.5
		z"/>
</g>
</svg>
